<?xml version="1.0" encoding="utf-8"?>
<!-- Generator: Adobe Illustrator 16.0.0, SVG Export Plug-In . SVG Version: 6.00 Build 0)  -->
<!DOCTYPE svg PUBLIC "-//W3C//DTD SVG 1.1//EN" "http://www.w3.org/Graphics/SVG/1.1/DTD/svg11.dtd">
<svg version="1.1" id="Capa_1" xmlns="http://www.w3.org/2000/svg" xmlns:xlink="http://www.w3.org/1999/xlink" x="0px" y="0px"
	 width="562px" height="385px" viewBox="0 0 562 385" enable-background="new 0 0 562 385" xml:space="preserve">
<g>
	<g>
		<path fill="#D1D706" d="M18.432,346.996c0,0-25.683-23.306,11.415-35.672c56.598,6.66,184.061-81.328,194.523-27.584
			c27.109,1.902,142.682-53.744,168.84-17.122c42.805,0.95,115.573,33.292,125.561,29.964c9.988-3.33,35.195,0.949,22.83,21.877
			c11.89,8.086,18.072,28.537-15.695,30.439s-317.707,2.854-317.707,2.854l-178.828-2.854L18.432,346.996z"/>
		<g>
			<path fill="#FFFFFF" d="M377.064,338.374c0-1.173-0.635-2.124-1.416-2.124c-0.573,0-1.063,0.514-1.287,1.249
				c-0.021-0.001-0.043-0.005-0.065-0.007c-0.086-0.002-0.169,0.006-0.253,0.008c-0.223-0.735-0.713-1.25-1.287-1.25
				c-0.782,0-1.416,0.951-1.416,2.124c0,1.071,0.531,1.948,1.219,2.093c0.449,0.235,1.01,0.391,1.629,0.41
				c1.492,0.049,2.727-0.67,2.756-1.604c0.001-0.012-0.004-0.023-0.004-0.035C377.017,338.974,377.064,338.683,377.064,338.374z"/>
			<path fill="#FFFFFF" d="M387.051,328.862c0-1.173-0.634-2.124-1.415-2.124c-0.574,0-1.064,0.514-1.287,1.248
				c-0.022-0.001-0.043-0.005-0.065-0.006c-0.087-0.002-0.169,0.006-0.253,0.008c-0.223-0.736-0.715-1.25-1.287-1.25
				c-0.782,0-1.416,0.951-1.416,2.124c0,1.071,0.531,1.948,1.219,2.093c0.449,0.235,1.009,0.391,1.628,0.41
				c1.493,0.049,2.727-0.67,2.757-1.604c0-0.012-0.006-0.023-0.006-0.035C387.005,329.462,387.051,329.17,387.051,328.862z"/>
			<path fill="#FFFFFF" d="M385.625,299.85c0-1.172-0.634-2.123-1.416-2.123c-0.573,0-1.063,0.513-1.287,1.248
				c-0.021-0.002-0.042-0.006-0.064-0.006c-0.087-0.004-0.169,0.006-0.253,0.008c-0.224-0.736-0.714-1.25-1.288-1.25
				c-0.781,0-1.416,0.951-1.416,2.123c0,1.072,0.531,1.949,1.219,2.094c0.449,0.234,1.01,0.389,1.629,0.41
				c1.492,0.048,2.727-0.67,2.756-1.604c0.002-0.012-0.004-0.023-0.004-0.035C385.579,300.449,385.625,300.158,385.625,299.85z"/>
			<path fill="#FFFFFF" d="M536.392,303.179c0-1.173-0.635-2.123-1.416-2.123c-0.573,0-1.063,0.514-1.287,1.248
				c-0.021-0.001-0.043-0.005-0.064-0.006c-0.087-0.003-0.169,0.005-0.253,0.008c-0.224-0.735-0.714-1.25-1.288-1.25
				c-0.781,0-1.416,0.95-1.416,2.123c0,1.071,0.531,1.949,1.219,2.094c0.449,0.235,1.01,0.39,1.629,0.411
				c1.492,0.048,2.727-0.671,2.756-1.604c0.001-0.013-0.004-0.024-0.004-0.037C536.345,303.779,536.392,303.488,536.392,303.179z"/>
			<path fill="#FFFFFF" d="M538.771,320.777c0-1.173-0.635-2.124-1.416-2.124c-0.574,0-1.064,0.513-1.287,1.249
				c-0.022-0.002-0.043-0.006-0.064-0.007c-0.088-0.003-0.17,0.005-0.254,0.007c-0.223-0.734-0.714-1.249-1.287-1.249
				c-0.781,0-1.416,0.951-1.416,2.124c0,1.07,0.531,1.947,1.219,2.094c0.449,0.234,1.01,0.389,1.629,0.41
				c1.492,0.047,2.727-0.671,2.756-1.604c0-0.012-0.005-0.024-0.005-0.035C538.724,321.377,538.771,321.086,538.771,320.777z"/>
			<path fill="#FFFFFF" d="M377.064,287.008c0-1.172-0.635-2.123-1.416-2.123c-0.573,0-1.063,0.514-1.287,1.248
				c-0.021-0.001-0.043-0.006-0.065-0.006c-0.086-0.002-0.169,0.006-0.253,0.008c-0.223-0.736-0.713-1.25-1.287-1.25
				c-0.782,0-1.416,0.951-1.416,2.123c0,1.072,0.531,1.949,1.219,2.094c0.449,0.234,1.01,0.39,1.629,0.41
				c1.492,0.049,2.727-0.67,2.756-1.604c0.001-0.012-0.004-0.023-0.004-0.035C377.017,287.608,377.064,287.316,377.064,287.008z"/>
			<path fill="#FFFFFF" d="M383.722,268.459c0-1.172-0.635-2.123-1.416-2.123c-0.573,0-1.064,0.514-1.287,1.248
				c-0.021-0.001-0.043-0.006-0.064-0.006c-0.087-0.003-0.17,0.006-0.254,0.008c-0.223-0.736-0.714-1.25-1.287-1.25
				c-0.781,0-1.416,0.951-1.416,2.123c0,1.072,0.531,1.949,1.219,2.094c0.449,0.234,1.01,0.391,1.629,0.41
				c1.492,0.049,2.727-0.67,2.756-1.604c0.001-0.012-0.004-0.023-0.004-0.035C383.676,269.06,383.722,268.768,383.722,268.459z"/>
			<path fill="#FFFFFF" d="M214.405,276.068c0-1.172-0.634-2.123-1.416-2.123c-0.574,0-1.064,0.514-1.287,1.248
				c-0.022-0.001-0.043-0.006-0.065-0.006c-0.087-0.002-0.169,0.006-0.253,0.008c-0.223-0.736-0.714-1.25-1.287-1.25
				c-0.781,0-1.416,0.951-1.416,2.123c0,1.072,0.531,1.949,1.219,2.094c0.449,0.235,1.01,0.39,1.629,0.41
				c1.492,0.049,2.727-0.67,2.756-1.604c0.002-0.012-0.004-0.023-0.004-0.035C214.359,276.669,214.405,276.377,214.405,276.068z"/>
			<path fill="#FFFFFF" d="M229.148,298.898c0-1.174-0.634-2.124-1.415-2.124c-0.573,0-1.063,0.514-1.287,1.248
				c-0.021-0.001-0.043-0.005-0.064-0.006c-0.087-0.003-0.169,0.005-0.254,0.008c-0.223-0.735-0.713-1.25-1.287-1.25
				c-0.782,0-1.416,0.95-1.416,2.124c0,1.07,0.531,1.948,1.219,2.094c0.449,0.234,1.009,0.389,1.629,0.41
				c1.492,0.048,2.726-0.671,2.756-1.604c0-0.013-0.005-0.024-0.005-0.037C229.103,299.498,229.148,299.207,229.148,298.898z"/>
			<path fill="#FFFFFF" d="M224.868,322.203c0-1.172-0.635-2.123-1.416-2.123c-0.572,0-1.063,0.513-1.285,1.248
				c-0.022-0.002-0.044-0.006-0.066-0.007c-0.086-0.003-0.168,0.007-0.253,0.008c-0.224-0.735-0.714-1.249-1.288-1.249
				c-0.781,0-1.415,0.951-1.415,2.123c0,1.072,0.53,1.949,1.219,2.094c0.448,0.234,1.009,0.389,1.629,0.41
				c1.493,0.048,2.726-0.67,2.756-1.604c0-0.012-0.005-0.023-0.005-0.035C224.822,322.803,224.868,322.512,224.868,322.203z"/>
			<path fill="#FFFFFF" d="M231.526,331.239c0-1.173-0.634-2.124-1.416-2.124c-0.572,0-1.063,0.514-1.285,1.249
				c-0.023-0.002-0.044-0.006-0.066-0.007c-0.086-0.002-0.168,0.006-0.254,0.008c-0.223-0.735-0.713-1.25-1.287-1.25
				c-0.781,0-1.415,0.951-1.415,2.124c0,1.071,0.53,1.948,1.219,2.093c0.448,0.236,1.009,0.391,1.63,0.411
				c1.492,0.048,2.725-0.671,2.756-1.604c0-0.012-0.006-0.023-0.006-0.035C231.48,331.839,231.526,331.548,231.526,331.239z"/>
			<path fill="#FFFFFF" d="M19.881,331.715c0-1.174-0.634-2.124-1.415-2.124c-0.573,0-1.064,0.513-1.287,1.249
				c-0.021-0.002-0.043-0.006-0.065-0.008c-0.086-0.002-0.169,0.007-0.253,0.009c-0.223-0.735-0.714-1.25-1.287-1.25
				c-0.783,0-1.416,0.95-1.416,2.124c0,1.07,0.531,1.948,1.219,2.093c0.449,0.235,1.009,0.39,1.629,0.411
				c1.492,0.047,2.726-0.672,2.756-1.604c0-0.012-0.006-0.023-0.006-0.035C19.835,332.314,19.881,332.023,19.881,331.715z"/>
		</g>
	</g>
	<g>
		<g>
			
				<line fill="#FFFFFF" stroke="#FFDF45" stroke-width="9.9213" stroke-linecap="round" x1="41.64" y1="365.859" x2="524.532" y2="365.197"/>
			
				<line fill="#FFFFFF" stroke="#FFDF45" stroke-width="9.9213" stroke-linecap="round" x1="57.207" y1="350.293" x2="540.098" y2="349.631"/>
		</g>
		<g>
			<path fill="#FFFFFF" stroke="#FFDF45" stroke-width="9.9213" stroke-linecap="round" d="M62.897,376.602
				c0.234-0.867,6.092-25.866,6.092-25.866"/>
			<path fill="#FFFFFF" stroke="#FFDF45" stroke-width="9.9213" stroke-linecap="round" d="M91.91,376.007
				c0.233-0.866,6.091-25.866,6.091-25.866"/>
			<path fill="#FFFFFF" stroke="#FFDF45" stroke-width="9.9213" stroke-linecap="round" d="M121.636,376.363
				c0.234-0.866,6.09-25.865,6.09-25.865"/>
			<path fill="#FFFFFF" stroke="#FFDF45" stroke-width="9.9213" stroke-linecap="round" d="M148.388,376.721
				c0.234-0.867,6.092-25.867,6.092-25.867"/>
			<path fill="#FFFFFF" stroke="#FFDF45" stroke-width="9.9213" stroke-linecap="round" d="M176.449,377.434
				c0.233-0.866,6.091-25.865,6.091-25.865"/>
			<path fill="#FFFFFF" stroke="#FFDF45" stroke-width="9.9213" stroke-linecap="round" d="M205.937,376.008
				c0.234-0.867,6.092-25.866,6.092-25.866"/>
			<path fill="#FFFFFF" stroke="#FFDF45" stroke-width="9.9213" stroke-linecap="round" d="M233.403,376.008
				c0.233-0.867,6.091-25.866,6.091-25.866"/>
			<path fill="#FFFFFF" stroke="#FFDF45" stroke-width="9.9213" stroke-linecap="round" d="M264.118,375.658
				c0.233-0.867,6.092-25.867,6.092-25.867"/>
			<path fill="#FFFFFF" stroke="#FFDF45" stroke-width="9.9213" stroke-linecap="round" d="M293.726,376.729
				c0.232-0.867,6.09-25.866,6.09-25.866"/>
			<path fill="#FFFFFF" stroke="#FFDF45" stroke-width="9.9213" stroke-linecap="round" d="M324.64,377.084
				c0.234-0.865,6.092-25.865,6.092-25.865"/>
			<path fill="#FFFFFF" stroke="#FFDF45" stroke-width="9.9213" stroke-linecap="round" d="M351.75,376.015
				c0.233-0.866,6.091-25.866,6.091-25.866"/>
			<path fill="#FFFFFF" stroke="#FFDF45" stroke-width="9.9213" stroke-linecap="round" d="M380.048,376.848
				c0.233-0.867,6.092-25.867,6.092-25.867"/>
			<path fill="#FFFFFF" stroke="#FFDF45" stroke-width="9.9213" stroke-linecap="round" d="M409.537,377.203
				c0.232-0.865,6.09-25.865,6.09-25.865"/>
			<path fill="#FFFFFF" stroke="#FFDF45" stroke-width="9.9213" stroke-linecap="round" d="M435.694,377.441
				c0.233-0.867,6.091-25.866,6.091-25.866"/>
			<path fill="#FFFFFF" stroke="#FFDF45" stroke-width="9.9213" stroke-linecap="round" d="M464.825,377.203
				c0.233-0.867,6.091-25.865,6.091-25.865"/>
			<path fill="#FFFFFF" stroke="#FFDF45" stroke-width="9.9213" stroke-linecap="round" d="M494.906,376.847
				c0.234-0.866,6.092-25.866,6.092-25.866"/>
		</g>
	</g>
	<g>
		<g>
			<path fill="#F6A506" stroke="#1E1E1C" stroke-width="5.1079" stroke-linecap="round" d="M259.374,148.255
				c4.584-19.928-5.814-39.329-23.223-43.332c-17.408-4.003-35.236,8.906-39.818,28.834c-3.882,16.878,2.984,33.376,15.754,40.462
				l-2.85,4.83l12.53,2.87l0.433-4.362C238.735,179.757,255.024,167.174,259.374,148.255z"/>
			<polygon fill="#AEC914" stroke="#FFDF45" stroke-width="2.5728" stroke-linecap="round" points="219.719,118.122 
				219.912,125.036 225.717,128.796 219.203,131.118 217.42,137.801 213.198,132.321 206.292,132.691 210.198,126.983 
				207.713,120.529 214.349,122.481 			"/>
			<polygon fill="#E85396" stroke="#FFDF45" stroke-width="4.2881" stroke-linecap="round" points="231.028,149.062 
				235.444,154.479 242.409,153.911 238.621,159.787 241.312,166.234 234.556,164.446 229.255,169 228.868,162.022 222.901,158.385 
				229.419,155.861 			"/>
			<g>
				<polygon fill="#FEEB17" points="253.399,137.134 252.768,141.269 255.817,144.133 251.689,144.811 249.909,148.596 
					247.987,144.88 243.838,144.355 246.777,141.38 245.995,137.271 249.733,139.148 				"/>
				<polygon fill="#FEEB17" points="238.757,113.393 238.188,117.118 240.935,119.698 237.218,120.309 235.612,123.718 
					233.883,120.371 230.144,119.898 232.792,117.219 232.087,113.517 235.454,115.208 				"/>
			</g>
		</g>
		<path fill="none" stroke="#1E1E1C" stroke-width="4.252" stroke-linecap="round" d="M200.141,189.84
			c0,0,8.383,15.673-1.821,29.159"/>
		<path fill="none" stroke="#1E1E1C" stroke-width="4.252" stroke-linecap="round" d="M215.085,182.187
			c0,0-6.562,13.851-11.664,20.411"/>
		<g>
			<path fill="#FEEB17" stroke="#1E1E1C" stroke-width="4.252" stroke-linecap="round" d="M214.755,147.37
				c-6.373-15.785-22.718-24.067-36.506-18.5c-13.788,5.567-19.799,22.875-13.426,38.66c5.396,13.368,17.947,21.352,30.039,20.101
				l0.357,4.655l9.92-4.015l-1.785-3.184C215.687,178.707,220.806,162.354,214.755,147.37z"/>
			<polygon fill="#1E9CD8" stroke="#FFFFFF" stroke-width="1.9843" stroke-linecap="round" points="195.692,133.946 198.054,138.73 
				203.333,139.497 199.513,143.221 200.415,148.479 195.692,145.996 190.971,148.479 191.872,143.221 188.052,139.497 
				193.331,138.73 			"/>
			<polygon fill="#E85396" stroke="#FFFFFF" stroke-width="1.9843" stroke-linecap="round" points="193.331,168.286 
				194.763,171.186 197.962,171.65 195.646,173.908 196.192,177.094 193.331,175.589 190.469,177.094 191.017,173.908 188.7,171.65 
				191.9,171.186 			"/>
			<g>
				<polygon fill="#FFFFFF" points="207.737,152.837 208.92,155.232 211.563,155.616 209.65,157.48 210.103,160.113 207.737,158.87 
					205.374,160.113 205.825,157.48 203.913,155.616 206.556,155.232 				"/>
				<polygon fill="#FFFFFF" points="174.438,157.047 175.979,160.169 179.425,160.671 176.931,163.101 177.52,166.533 
					174.438,164.913 171.355,166.533 171.943,163.101 169.45,160.671 172.896,160.169 				"/>
				<polygon fill="#FFFFFF" points="176.799,135.367 178.187,138.18 181.291,138.631 179.044,140.82 179.575,143.912 
					176.799,142.452 174.022,143.912 174.553,140.82 172.306,138.631 175.41,138.18 				"/>
			</g>
		</g>
	</g>
	<g>
		<path fill="#FFFFFF" stroke="#1E1E1C" stroke-width="3.4016" d="M32.597,26.41c0,0-0.576-14.795,18.445-18.445
			c9.991-1.921,18.637,5.188,20.943,9.415c2.497-8.455,32.663-15.179,34.777,9.991c12.104-3.843,30.934-2.113,30.934,21.136
			c0,18.253-17.869,18.061-25.361,17.484c-0.77,11.72-15.371,34.777-41.502,13.45c-15.948,16.908-40.158,6.341-41.694-12.489
			C8.964,65.99,4.159,47.545,9.924,35.057C14.92,24.104,27.217,25.833,32.597,26.41z"/>
		<circle fill="#1E1E1C" cx="55.846" cy="41.013" r="3.458"/>
		<circle fill="#1E1E1C" cx="87.74" cy="41.013" r="3.458"/>
		<ellipse fill="#EB6089" cx="35.92" cy="45.527" rx="8.427" ry="4.094"/>
		<circle fill="#FFFFFF" cx="32.885" cy="45.527" r="1.825"/>
		<ellipse fill="#EB6089" cx="108.357" cy="45.527" rx="8.427" ry="4.094"/>
		<circle fill="#FFFFFF" cx="111.393" cy="45.527" r="1.825"/>
		<path fill="none" stroke="#1E1E1C" stroke-width="2.8346" stroke-linecap="round" d="M57.96,47.737c0,0-0.77,10.184,12.68,10.952
			c12.682,0.769,13.642-6.148,13.642-11.912"/>
	</g>
	<g>
		<path fill="#FFFFFF" stroke="#1E1E1C" stroke-width="1.936" d="M292.9,122.229c0,0-0.326-8.42,10.5-10.499
			c5.685-1.094,10.607,2.953,11.919,5.359c1.422-4.812,18.591-8.64,19.794,5.686c6.889-2.187,17.607-1.203,17.607,12.03
			c0,10.389-10.172,10.28-14.438,9.952c-0.436,6.67-8.747,19.794-23.619,7.656c-9.077,9.622-22.856,3.609-23.732-7.109
			c-11.482-0.547-14.217-11.044-10.935-18.153C282.839,120.916,289.839,121.9,292.9,122.229z"/>
		<circle fill="#1E1E1C" cx="306.133" cy="130.539" r="1.968"/>
		<circle fill="#1E1E1C" cx="324.287" cy="130.539" r="1.968"/>
		<ellipse fill="#EB6089" cx="294.793" cy="133.109" rx="4.796" ry="2.33"/>
		<circle fill="#FFFFFF" cx="293.065" cy="133.109" r="1.039"/>
		<ellipse fill="#EB6089" cx="336.021" cy="133.109" rx="4.797" ry="2.33"/>
		<circle fill="#FFFFFF" cx="337.749" cy="133.109" r="1.038"/>
		<path fill="none" stroke="#1E1E1C" stroke-width="1.6134" stroke-linecap="round" d="M307.335,134.367
			c0,0-0.436,5.796,7.219,6.233c7.217,0.437,7.765-3.5,7.765-6.781"/>
	</g>
	<g>
		<path fill="#FFFFFF" stroke="#1E1E1C" stroke-width="2.9263" d="M442.765,23.705c0,0-0.494-12.728,15.87-15.869
			c8.593-1.653,16.033,4.464,18.016,8.1c2.149-7.273,28.101-13.058,29.917,8.595c10.414-3.306,26.613-1.818,26.613,18.183
			c0,15.702-15.373,15.537-21.82,15.042c-0.659,10.082-13.222,29.918-35.701,11.571c-13.72,14.544-34.545,5.455-35.869-10.746
			c-17.355-0.826-21.488-16.693-16.529-27.438C427.558,21.72,438.139,23.208,442.765,23.705z"/>
		<circle fill="#1E1E1C" cx="462.767" cy="36.265" r="2.975"/>
		<circle fill="#1E1E1C" cx="490.207" cy="36.265" r="2.975"/>
		<ellipse fill="#EB6089" cx="445.626" cy="40.15" rx="7.25" ry="3.522"/>
		<circle fill="#FFFFFF" cx="443.014" cy="40.15" r="1.57"/>
		<ellipse fill="#EB6089" cx="507.941" cy="40.15" rx="7.25" ry="3.522"/>
		<circle fill="#FFFFFF" cx="510.553" cy="40.15" r="1.57"/>
		<path fill="none" stroke="#1E1E1C" stroke-width="2.4386" stroke-linecap="round" d="M464.583,42.051c0,0-0.658,8.761,10.91,9.421
			c10.91,0.661,11.738-5.289,11.738-10.248"/>
	</g>
	<g>
		<path fill="#A1D8F6" stroke="#1E1E1C" stroke-width="2.7797" d="M365.066,80.752c0,0-0.47-12.09,15.075-15.074
			c8.163-1.57,15.229,4.241,17.113,7.694c2.04-6.909,26.693-12.405,28.419,8.164c9.892-3.14,25.28-1.727,25.28,17.272
			c0,14.916-14.604,14.759-20.728,14.288c-0.627,9.578-12.561,28.42-33.914,10.992c-13.031,13.815-32.814,5.182-34.072-10.207
			c-16.485-0.785-20.412-15.858-15.7-26.065C350.621,78.867,360.671,80.281,365.066,80.752z"/>
		<path fill="none" stroke="#FFFFFF" stroke-width="3.6353" stroke-linecap="round" stroke-linejoin="round" d="M367.292,83.874
			c0,0-0.427-10.105,13.722-12.6c7.431-1.312,13.865,3.544,15.578,6.431c1.857-5.774,24.297-10.368,25.869,6.823
			c9.004-2.625,23.012-1.443,23.012,14.437c0,12.467-13.293,12.335-18.867,11.942c-0.57,8.005-11.434,23.753-30.871,9.187
			c-11.863,11.548-29.869,4.331-31.014-8.531c-15.006-0.656-18.58-13.254-14.292-21.785
			C354.144,82.298,363.292,83.479,367.292,83.874z"/>
		<circle fill="#1E1E1C" cx="384.065" cy="92.684" r="2.826"/>
		<circle fill="#1E1E1C" cx="410.13" cy="92.684" r="2.826"/>
		<ellipse fill="#EB6089" cx="367.784" cy="96.374" rx="6.887" ry="3.346"/>
		<circle fill="#FFFFFF" cx="365.303" cy="96.374" r="1.492"/>
		<ellipse fill="#EB6089" cx="426.978" cy="96.374" rx="6.887" ry="3.346"/>
		<circle fill="#FFFFFF" cx="429.458" cy="96.374" r="1.491"/>
		<path fill="none" stroke="#1E1E1C" stroke-width="2.3164" stroke-linecap="round" d="M385.792,98.18c0,0-0.627,8.322,10.363,8.95
			c10.362,0.628,11.148-5.024,11.148-9.735"/>
	</g>
	<g>
		<path fill="#1589CB" stroke="#1E1E1C" stroke-width="1.4173" d="M137.068,84.17c0,0-0.738-12.729,12.175-14.573
			c10.883-1.66,14.02,5.718,14.756,8.301c0.738,2.583,13.523-12.225,22.505,6.825c2.399,2.767,15.127,2.029,14.942,14.019
			c-0.186,7.563-9.961,13.097-23.428,11.253c-1.66,8.485-9.039,13.466-17.523,13.281c-8.485-0.553-14.203-7.748-15.68-13.65
			c-11.437,2.029-22.873-4.98-22.689-12.175C122.312,90.257,123.787,87.859,137.068,84.17z"/>
		<path fill="none" stroke="#FFFFFF" stroke-width="3.6353" stroke-linecap="round" d="M151.716,110.659
			c0,0,2.045,6.242,9.179,6.242c5.944,0,7.593-3.905,8.306-5.57"/>
	</g>
	<g>
		<path fill="#1589CB" stroke="#1E1E1C" stroke-width="1.4173" d="M219.614,71.619c0,0,0.237-9.988,10.701-9.512
			c9.75,0.475,7.134,9.75,7.848,10.463c0.713,0.713,8.322,4.994,3.09,11.652c-5.23,6.659-9.986,2.141-12.365,0.238
			c-5.707,5.47-13.555,5.945-16.883,0.714C208.675,80.18,210.577,73.759,219.614,71.619z"/>
		<path fill="none" stroke="#FFFFFF" stroke-width="3.6353" stroke-linecap="round" d="M231.028,81.844c0,0,4.042,4.756,8.085-0.713
			"/>
	</g>
	<g>
		<path fill="#1589CB" stroke="#1E1E1C" stroke-width="1.4173" d="M370.501,166.859c0,0,0.237-9.987,10.7-9.512
			c9.751,0.475,7.134,9.749,7.849,10.463c0.713,0.713,8.322,4.994,3.09,11.653c-5.23,6.659-9.986,2.14-12.365,0.238
			c-5.707,5.469-13.555,5.944-16.883,0.713C359.562,175.42,361.464,169,370.501,166.859z"/>
		<path fill="none" stroke="#FFFFFF" stroke-width="3.6353" stroke-linecap="round" d="M381.916,177.084
			c0,0,4.042,4.756,8.085-0.714"/>
	</g>
	<g>
		<path fill="#1589CB" stroke="#1E1E1C" stroke-width="1.4173" d="M98.097,121.667c0,0-0.006-12.325,12.365-11.763
			c11.529,0.563,8.725,12.044,9.568,12.887c0.843,0.844,9.84,5.905,3.654,13.778c-6.186,7.874-11.811,2.531-14.621,0.281
			c-6.748,6.467-16.027,7.03-19.964,0.844C85.163,131.79,87.413,124.198,98.097,121.667z"/>
		<path fill="none" stroke="#FFFFFF" stroke-width="4.102" stroke-linecap="round" d="M111.126,133.809c0,0,4.562,5.366,9.123-0.805
			"/>
	</g>
	<g>
		
			<ellipse transform="matrix(0.8645 -0.5026 0.5026 0.8645 -65.0905 42.4224)" fill="#FFE845" stroke="#1E1E1C" stroke-width="2.8346" stroke-linecap="round" cx="46.15" cy="141.957" rx="20.837" ry="19.201"/>
		<path fill="#FFE845" stroke="#1E1E1C" stroke-width="2.8346" stroke-linecap="round" d="M26.181,139.176
			c0,0-6.355-2.342-13.158,6.468c-4.35,5.13-0.336,11.933,4.014,11.933s9.813-4.572,9.813-7.137
			C26.85,147.875,23.505,144.417,26.181,139.176z"/>
		<path fill="#FFE845" stroke="#1E1E1C" stroke-width="2.8346" stroke-linecap="round" d="M46.253,122.226
			c0,0-1.672-4.795,9.814-12.49c3.791-2.341,9.701-1.227,10.928,2.454s-2.563,11.486-8.586,13.047
			C55.398,123.118,51.718,121.558,46.253,122.226z"/>
		<path fill="#FFE845" stroke="#1E1E1C" stroke-width="2.8346" stroke-linecap="round" d="M22.946,115.424
			c0,0-5.393,5.552-1.449,7.917c3.903,2.342,5.018,0.558,5.018,0.558s-2.117,11.375,1.116,11.375
			c2.341-6.133,7.471-10.371,14.497-12.49c-1.563-4.572-5.242-4.126-9.257-4.015C34.879,115.535,29.415,108.063,22.946,115.424z"/>
		<path fill="#1E1E1C" stroke="#1E1E1C" stroke-width="2.8346" d="M63.538,151.778l1.785,6.021l-6.022-1.338
			C59.301,156.461,61.978,153.228,63.538,151.778z"/>
		<g>
			<circle fill="#FFFFFF" cx="48.595" cy="153.895" r="5.242"/>
			<circle fill="#1E1E1C" cx="50.826" cy="155.234" r="2.23"/>
		</g>
		<g>
			<circle fill="#FFFFFF" cx="58.742" cy="143.859" r="5.241"/>
			<circle fill="#1E1E1C" cx="60.974" cy="145.198" r="2.23"/>
		</g>
	</g>
	<g>
		
			<ellipse transform="matrix(0.3296 0.9441 -0.9441 0.3296 267.7921 -204.4043)" fill="#FFD746" stroke="#1E1E1C" stroke-width="2.5113" stroke-linecap="round" cx="277.832" cy="86.37" rx="18.46" ry="17.011"/>
		<g>
			<circle fill="#FFFFFF" cx="267.33" cy="86.01" r="4.052"/>
			<circle fill="#1E1E1C" cx="265.987" cy="87.507" r="1.725"/>
		</g>
		<g>
			<circle fill="#FFFFFF" cx="275.013" cy="89.831" r="4.053"/>
			<circle fill="#1E1E1C" cx="273.669" cy="91.328" r="1.725"/>
		</g>
		<path fill="#1E1E1C" stroke="#1E1E1C" stroke-width="2.5113" d="M266.37,99.848l-5.537,0.542l2.174-5.014
			C263.007,95.375,265.371,98.246,266.37,99.848z"/>
		<path fill="#FFD746" stroke="#1E1E1C" stroke-width="2.5113" stroke-linecap="round" d="M293.608,79.586
			c0,0,4.63-7.295,9.681-0.841c4.209,5.893-0.561,10.803-2.665,12.487c-1.544,1.122,3.647,9.681-2.666,11.504
			c-4.771,1.543-9.399-1.263-7.716-2.946C291.924,98.106,296.415,87.864,293.608,79.586z"/>
		<path fill="#FFD746" stroke="#1E1E1C" stroke-width="2.5113" stroke-linecap="round" d="M285.834,103.015
			c0,0-4.151,4.631,0.479,6.736c3.788,1.824,8.138-3.648,8.558-6.313c-3.647-1.123-4.629-1.123-5.051-2.946
			C287.892,101.964,287.673,102.314,285.834,103.015z"/>
		<path fill="#FFD746" stroke="#1E1E1C" stroke-width="2.5113" stroke-linecap="round" d="M303.57,88.426
			c0,0,6.313-0.28,5.611,3.507c2.947,0,3.789,4.349,0.702,5.752c0.001,3.508-5.332,4.35-8.559,1.965
			c-0.7-5.893-0.841-6.875-1.263-7.856C302.448,89.969,303.57,88.987,303.57,88.426z"/>
	</g>
	<g>
		<g>
			<path fill="#ADCB54" stroke="#1E1E1C" stroke-width="1.2771" d="M24.046,367.168c0,0,1.825-4.916,9.553-3.154
				C31.462,371.013,25.753,368.934,24.046,367.168z"/>
			<path fill="#ADCB54" stroke="#1E1E1C" stroke-width="1.2771" d="M23.715,367.556c0,0-1.433-5.046-9.278-3.902
				C16.018,370.799,21.873,369.179,23.715,367.556z"/>
			<path fill="#ADCB54" stroke="#1E1E1C" stroke-width="1.2771" d="M25.233,370.908c0,0.781-0.633,1.412-1.414,1.412l0,0
				c-0.781,0-1.414-0.631-1.414-1.412v-11.643c0-0.781,0.633-1.413,1.414-1.413l0,0c0.781,0,1.414,0.632,1.414,1.413V370.908z"/>
		</g>
		<g>
			<ellipse fill="#E85396" stroke="#1E1E1C" stroke-width="1.2771" cx="23.89" cy="340.491" rx="4.306" ry="6.026"/>
			
				<ellipse transform="matrix(0.0338 -0.9994 0.9994 0.0338 -338.6597 354.0307)" fill="#E85396" stroke="#1E1E1C" stroke-width="1.2771" cx="13.771" cy="352.167" rx="4.306" ry="6.026"/>
			
				<ellipse transform="matrix(-0.191 0.9816 -0.9816 -0.191 385.6125 387.0939)" fill="#E85396" stroke="#1E1E1C" stroke-width="1.2771" cx="33.288" cy="352.455" rx="4.305" ry="6.025"/>
			
				<ellipse transform="matrix(0.4464 0.8948 -0.8948 0.4464 325.5724 161.3345)" fill="#E85396" stroke="#1E1E1C" stroke-width="1.2771" cx="32.39" cy="343.807" rx="4.305" ry="6.025"/>
			
				<ellipse transform="matrix(-0.7969 0.6041 -0.6041 -0.7969 266.7383 626.1452)" fill="#E85396" stroke="#1E1E1C" stroke-width="1.2771" cx="28.119" cy="357.909" rx="4.305" ry="6.025"/>
			
				<ellipse transform="matrix(-0.5693 -0.8221 0.8221 -0.5693 -264.8734 577.3403)" fill="#E85396" stroke="#1E1E1C" stroke-width="1.2771" cx="18.794" cy="358.052" rx="4.307" ry="6.025"/>
			
				<ellipse transform="matrix(0.6196 -0.7849 0.7849 0.6196 -264.0065 143.4416)" fill="#E85396" stroke="#1E1E1C" stroke-width="1.2771" cx="15.997" cy="344.118" rx="4.306" ry="6.027"/>
			<circle fill="#FFE505" stroke="#1E1E1C" stroke-width="1.2771" cx="23.743" cy="351.092" r="6.387"/>
		</g>
	</g>
	<g>
		<g>
			<path fill="#ADCB54" stroke="#1E1E1C" stroke-width="1.2771" d="M223.801,364.314c0,0,1.825-4.916,9.554-3.154
				C231.217,368.158,225.508,366.08,223.801,364.314z"/>
			<path fill="#ADCB54" stroke="#1E1E1C" stroke-width="1.2771" d="M223.47,364.701c0,0-1.432-5.045-9.277-3.901
				C215.772,367.945,221.628,366.325,223.47,364.701z"/>
			<path fill="#ADCB54" stroke="#1E1E1C" stroke-width="1.2771" d="M224.989,368.055c0,0.781-0.634,1.412-1.414,1.412l0,0
				c-0.781,0-1.414-0.631-1.414-1.412v-11.643c0-0.781,0.633-1.413,1.414-1.413l0,0c0.78,0,1.414,0.632,1.414,1.413V368.055z"/>
		</g>
		<path fill="#F6A506" stroke="#1E1E1C" stroke-width="3.9837" stroke-linejoin="round" d="M217.117,345.51
			c0,0-1.784,11.414,7.134,11.236c8.025-0.179,6.956-8.562,6.956-11.95c3.21,0.179,2.854-4.815,2.14-6.242
			c-0.713-1.427-3.912-2.784-5.556-0.468c-0.3,0.522,0-2.84-4.11-2.541c-0.822-0.149-3.139-0.148-2.914,3.363
			c0.074,1.42-2.092-2.84-4.559-1.869C216.208,337.039,210.255,339.407,217.117,345.51z"/>
	</g>
	<g>
		<path fill="#1DAFE6" stroke="#1E1E1C" stroke-width="2.8346" d="M234.005,234.379v76.075c0,0-4.076,28.8,16.03,33.418
			c20.106,4.619,52.71,6.521,84.771,4.347c23.094-1.357,33.418-6.791,33.689-34.775c0.271-27.985,0-80.966,0-80.966L234.005,234.379
			z"/>
		<polygon fill="#D3ECFB" points="289.35,243.848 318.066,244.205 313.25,252.409 305.758,252.588 305.045,254.729 298.447,254.906 
					"/>
		<g>
			<path fill="#FFFFFF" d="M311.823,249.555c-4.638,0-20.333,2.319-20.333,2.319s-1.604,13.555-1.426,14.804
				c0.07,0.495-0.086,3.467-0.956,7.369l24.664-13.812C313.884,254.092,313.533,249.555,311.823,249.555z"/>
			<path fill="#D3ECFB" d="M313.772,260.235l-24.664,13.812c-1.321,5.928-4.291,14.008-10.638,18.848c0,0-5.35,16.053,16.053,16.053
				c21.402,0,21.58-9.275,19.084-17.656C312.03,285.998,313.581,270.756,313.772,260.235z"/>
		</g>
		<g>
			<path fill="#FEEB17" d="M316.103,257.582c0,0,1.783-13.199,5.172-14.269c3.39-1.07,7.848,12.484,8.026,14.446
				C317.708,259.008,316.103,257.582,316.103,257.582z"/>
			<path fill="#FEEB17" d="M351.952,270.066c0,0,11.594-2.498,12.842,0.355c1.249,2.854-6.063,10.702-7.491,9.988
				C355.876,279.697,351.06,270.066,351.952,270.066z"/>
		</g>
		<g>
			<path fill="#FEEB17" stroke="#1E1E1C" stroke-width="2.8346" d="M236.26,224.289c0,0,11.653-46.848,63.97-47.324
				c17.121,0.476,67.061,13.792,65.872,48.513C242.442,228.807,236.26,224.289,236.26,224.289z"/>
			<g>
				<path fill="#A8599E" stroke="#1E1E1C" stroke-width="2.8346" d="M282.231,226.684c-1.093-7.868-2.685-33.594,19.688-49.636
					c-0.593-0.04-1.157-0.067-1.689-0.082c-1.215,0.011-2.4,0.055-3.571,0.115c-11.19,5.657-35.786,21.207-37.48,49.213
					C265.173,226.488,272.725,226.634,282.231,226.684z"/>
				<path fill="#A8599E" stroke="#1E1E1C" stroke-width="2.8346" d="M345.05,225.996c-1.752-9.49-8.35-32.428-31.979-42.848
					c-3.378-1.055-5.113-3.33-6.002-5.532c-1.274-0.187-2.477-0.333-3.598-0.441c-0.198,2.759,3.332,8.402,15.069,23.809
					c5.35,8.773,3.576,22.74,3.166,25.449C328.873,226.326,336.636,226.182,345.05,225.996z"/>
			</g>
			<g>
				<circle fill="#E85396" stroke="#1E1E1C" stroke-width="2.8346" cx="299.992" cy="173.16" r="9.084"/>
				<circle fill="#FFFFFF" cx="303.083" cy="171.496" r="2.854"/>
			</g>
		</g>
		<g>
			<path fill="#E85396" stroke="#1E1E1C" stroke-width="2.8346" d="M374.901,229.639c0,3.872-3.087,7.01-6.896,7.01H235.07
				c-3.808,0-6.896-3.138-6.896-7.01l0,0c0-3.87,3.088-7.008,6.896-7.008h132.935C371.814,222.631,374.901,225.769,374.901,229.639
				L374.901,229.639z"/>
			<g>
				<circle fill="#FFFFFF" cx="241.848" cy="229.4" r="3.448"/>
				<circle fill="#FFFFFF" cx="256.117" cy="229.4" r="3.448"/>
				<circle fill="#FFFFFF" cx="270.623" cy="229.4" r="3.448"/>
				<circle fill="#FFFFFF" cx="288.458" cy="229.4" r="3.448"/>
				<circle fill="#FFFFFF" cx="316.995" cy="229.4" r="3.448"/>
				<circle fill="#FFFFFF" cx="333.166" cy="229.4" r="3.448"/>
				<circle fill="#FFFFFF" cx="347.671" cy="229.4" r="3.448"/>
				<circle fill="#FFFFFF" cx="363.128" cy="229.4" r="3.448"/>
			</g>
		</g>
		<g>
			<path fill="#EAF6FD" stroke="#1E1E1C" stroke-width="1.371" d="M341.396,174.603c0,0,9.626-6.289,4.492-10.91
				c-3.08-2.695-6.674-0.642-9.754,7.572c1.284-9.755-1.154-13.861-5.775-12.578c-4.107,1.283-0.256,10.011-1.026,11.295
				C336.392,172.548,341.396,174.603,341.396,174.603z"/>
			
				<ellipse transform="matrix(-0.9597 -0.2812 0.2812 -0.9597 600.8588 445.2049)" fill="#FFE505" stroke="#1E1E1C" stroke-width="1.371" cx="332.37" cy="179.495" rx="13.222" ry="9.001"/>
			<path fill="#1E1E1C" d="M329.447,188.004c5.621-4.489,5.36-13.55,4.98-17.268c0.158,0.042,0.314,0.075,0.473,0.121
				c1.405,0.411,2.705,0.968,3.883,1.624c2.373,6.412-1.2,12.871-3.805,16.42c-1.647-0.007-3.388-0.255-5.14-0.769
				C329.705,188.094,329.578,188.045,329.447,188.004z"/>
			<path fill="none" stroke="#1E1E1C" stroke-width="1.371" stroke-linecap="round" d="M340.369,169.468
				c0,0-1.924,1.155-1.282,3.209"/>
			<path fill="none" stroke="#1E1E1C" stroke-width="1.371" stroke-linecap="round" d="M331.9,165.489c0,0,1.795,2.952,1.026,5.006"
				/>
			<path fill="none" stroke="#1E1E1C" stroke-width="1.4173" stroke-linecap="round" d="M328.177,179.094
				c0,0-2.182,3.081-6.033-0.514"/>
			<path fill="none" stroke="#1E1E1C" stroke-width="1.4173" stroke-linecap="round" d="M329.776,176.363
				c0,0-0.946-0.651-2.249-0.059"/>
			<path fill="none" stroke="#1E1E1C" stroke-width="1.4173" stroke-linecap="round" d="M324.288,175.607
				c0,0-0.819-0.804-2.205-0.444"/>
			<ellipse fill="#1E1E1C" cx="345.747" cy="184.316" rx="1.516" ry="1.204"/>
			<g>
				<path fill="none" stroke="#1E1E1C" stroke-width="1.4173" stroke-linecap="round" d="M325.326,170.628
					c0,0-1.07-3.389-3.121-4.281"/>
				<path fill="none" stroke="#1E1E1C" stroke-width="1.4173" stroke-linecap="round" d="M327.669,170.064
					c0,0,0.404-4.792-0.309-5.416"/>
				<circle fill="#1E1E1C" cx="327.287" cy="164.608" r="0.981"/>
				<circle fill="#1E1E1C" cx="322.07" cy="166.08" r="0.981"/>
			</g>
		</g>
		<path fill="#FFFFFF" stroke="#1E1E1C" stroke-width="2.7799" d="M261.349,300.564c0,0-4.816,9.453,6.242,9.453
			c11.058,0,10.702-7.135,10.523-11.594C265.808,301.635,269.553,300.564,261.349,300.564z"/>
		<g>
			<path fill="#ADCB54" stroke="#1E1E1C" stroke-width="2.8346" d="M374.901,314.298c0,3.872-3.087,7.009-6.896,7.009H235.07
				c-3.808,0-6.896-3.137-6.896-7.009l0,0c0-3.87,3.088-7.009,6.896-7.009h132.935C371.814,307.289,374.901,310.428,374.901,314.298
				L374.901,314.298z"/>
			<g>
				<circle fill="#FFFFFF" cx="241.848" cy="314.059" r="3.448"/>
				<circle fill="#FFFFFF" cx="281.562" cy="314.059" r="3.448"/>
				<circle fill="#FFFFFF" cx="302.25" cy="314.059" r="3.448"/>
				<circle fill="#FFFFFF" cx="340.776" cy="314.059" r="3.448"/>
				<circle fill="#FFFFFF" cx="361.464" cy="314.059" r="3.448"/>
			</g>
		</g>
		<g>
			<g>
				<circle fill="#E85396" stroke="#1E1E1C" stroke-width="3.9837" cx="266.091" cy="341.707" r="25.068"/>
				<circle fill="none" stroke="#FFFFFF" stroke-width="5.3117" stroke-dasharray="5.6693" cx="266.091" cy="341.707" r="19.62"/>
				<polygon fill="#FEEB17" stroke="#FFFFFF" stroke-width="2.6558" stroke-linejoin="round" points="270.989,355.275 
					264.31,348.525 254.962,350.203 259.317,341.762 254.833,333.391 264.206,334.924 270.782,328.074 272.221,337.462 
					280.768,341.599 272.284,345.867 				"/>
			</g>
			<g>
				<circle fill="#E85396" stroke="#1E1E1C" stroke-width="3.9837" cx="336.362" cy="341.707" r="25.068"/>
				<circle fill="none" stroke="#FFFFFF" stroke-width="5.3117" stroke-dasharray="5.6693" cx="336.362" cy="341.707" r="19.62"/>
				<polygon fill="#FEEB17" stroke="#FFFFFF" stroke-width="2.6558" stroke-linejoin="round" points="341.261,355.275 
					334.582,348.525 325.234,350.203 329.588,341.762 325.105,333.391 334.478,334.924 341.054,328.074 342.493,337.462 
					351.04,341.599 342.556,345.867 				"/>
			</g>
		</g>
		<g>
			<path fill="#FFFFFF" d="M231.468,272.777c0,0-3.11,29.977,29.66,27.403c15.882,2.349,36.354-7.608,40.552-34.427
				c1.633-11.428-6.764-23.555-17.259-25.653c-9.795-1.866-20.29,7.463-30.084,9.795S231.452,260.676,231.468,272.777z"/>
			<path fill="#D3ECFB" d="M284.421,240.101c-9.795-1.866-20.29,7.463-30.084,9.795c-0.912,0.218-1.852,0.487-2.808,0.809
				c6.878,11.862,16.483,11.792,25.396,6.164c6.281-3.968,7.736-12.069,8.039-16.642
				C284.783,240.184,284.603,240.137,284.421,240.101z"/>
			<g>
				<path fill="#1E1E1C" d="M269.528,293.803c-0.09-0.38-0.471-0.615-0.852-0.526c-1.084,0.255-1.979,0.167-2.657-0.265
					c-0.983-0.623-1.241-1.793-1.243-1.805c-0.081-0.381-0.455-0.627-0.836-0.549c-0.381,0.079-0.629,0.447-0.551,0.83
					c0.012,0.064,0.303,1.42,1.438,2.389c-2.039,3.977-6.166,5.469-6.209,5.484c-0.368,0.129-0.563,0.531-0.435,0.9
					c0.129,0.369,0.53,0.564,0.899,0.437c0.195-0.067,4.658-1.667,6.967-6.106c0.854,0.301,1.843,0.323,2.951,0.063
					C269.382,294.564,269.618,294.184,269.528,293.803z"/>
				<g>
					<g>
						<circle fill="#EB6089" cx="276.777" cy="281.035" r="4.727"/>
						<circle fill="#FFFFFF" cx="278.203" cy="281.035" r="1.695"/>
					</g>
					<g>
						<path fill="#1E1E1C" d="M259.796,286.871c-5.698,3.902-14.143,1.456-18.854-5.436c-4.707-6.902-3.891-15.658,1.813-19.549
							c5.696-3.91,14.145-1.469,18.853,5.43C266.315,274.216,265.511,282.977,259.796,286.871z"/>
						<path fill="#FFFFFF" d="M257.694,276.68c-1.133,0.709-2.646,0.327-3.381-0.848c-0.732-1.176-0.406-2.703,0.728-3.41
							c1.133-0.711,2.647-0.329,3.38,0.847C259.154,274.445,258.83,275.973,257.694,276.68z"/>
					</g>
					<g>
						
							<ellipse transform="matrix(0.5293 0.8484 -0.8484 0.5293 340.3604 -105.4531)" fill="#1E1E1C" cx="265.224" cy="254.036" rx="2.037" ry="3.691"/>
						
							<ellipse transform="matrix(0.7143 0.6999 -0.6999 0.7143 264.31 -115.0635)" fill="#1E1E1C" cx="273.071" cy="266.164" rx="2.037" ry="3.691"/>
					</g>
				</g>
			</g>
			<path fill="#FFFFFF" stroke="#1E1E1C" stroke-width="2.7799" d="M295.236,284.869c0,0,2.141,11.415-4.637,15.874
				c-6.421,4.102-6.421,3.566-6.421,3.566s-4.103,3.211,6.421,2.141c7.848-0.892,13.02-8.026,11.414-16.587
				C300.408,283.442,296.841,276.665,295.236,284.869z"/>
			<path fill="#FFFFFF" d="M285.426,240.103c0,0,0.714-8.562,14.269-17.3c5.172-2.497,9.453-2.854,11.414,1.248
				c1.783,4.103-0.713,6.242-8.204,10.166c-7.49,3.924-9.096,8.026-9.452,10.523C290.064,241.887,288.281,240.816,285.426,240.103z"
				/>
			<path fill="#D3ECFB" d="M288.103,240.551c0,0,4.403-10.229,11.268-12.948c4.402-2.073,4.531,0.905,3.885,2.719
				c-0.648,1.813-9.973,5.957-11.656,12.562C289.917,241.07,288.103,240.551,288.103,240.551z"/>
			<path fill="none" stroke="#1E1E1C" stroke-width="2.7799" d="M231.468,272.777c0,0-3.11,29.977,29.66,27.403
				c15.882,2.349,36.354-7.608,40.552-34.427c1.633-11.428-6.764-23.555-17.259-25.653c-9.795-1.866-20.29,7.463-30.084,9.795
				S231.452,260.676,231.468,272.777z"/>
			<path fill="none" stroke="#1E1E1C" stroke-width="2.7799" d="M285.426,240.103c0,0,0.714-8.562,14.269-17.3
				c5.172-2.497,9.453-2.854,11.414,1.248c1.783,4.103-0.713,6.242-8.204,10.166c-7.49,3.924-9.096,8.026-9.452,10.523
				C290.064,241.887,288.281,240.816,285.426,240.103z"/>
			<path fill="#FFFFFF" stroke="#1E1E1C" stroke-width="2.7799" d="M261.882,300.325c0,0-7.867,6.491-6.098,13.179
				c0.983,5.9,5.114,5.9,7.475,4.721c2.36-1.181,0.196-4.917-0.59-6.49C261.882,310.16,268.177,301.111,261.882,300.325z"/>
			<path fill="#FFFFFF" stroke="#1E1E1C" stroke-width="2.7799" d="M278.797,302.883c0,0-10.425,5.9-8.852,12.982
				c1.573,7.08,7.869,6.883,9.048,3.146c0.787-2.951-4.247-5.611,0.225-9.244c4.471-3.631,5.775-5.773,4.75-7.543
				C282.943,300.549,280.798,301.957,278.797,302.883z"/>
		</g>
		<g>
			<path fill="#FBBF43" stroke="#1E1E1C" stroke-width="2.8346" d="M309.148,260.613c0,0-1.784-21.58,11.771-23.898
				c4.993-0.536,14.09,9.273,15.694,21.045c9.631,1.962,10.345,6.955,10.345,6.955s21.58-8.025,25.326,4.281
				c2.14,8.739-14.269,17.121-15.338,20.154c-0.715,3.21-8.027,26.574-36.385,15.694c-17.657-7.669-25.326-20.332-22.294-31.568
				C301.3,262.932,309.148,260.613,309.148,260.613z"/>
			<path fill="#E85396" stroke="#1E1E1C" stroke-width="2.8346" d="M316.078,302.066c0,0-6.279,10.799,4.395,13.059
				c4.771,0.252,7.408,0.629,8.413-0.627s5.649-5.525,1.884-6.656C327.001,306.712,318.966,305.08,316.078,302.066z"/>
			<g>
				<path fill="none" stroke="#1E1E1C" stroke-width="2.7799" stroke-linecap="round" d="M314.32,258.651
					c0,0,6.42-0.179,5.707,4.815"/>
				<path fill="none" stroke="#1E1E1C" stroke-width="2.7799" stroke-linecap="round" d="M342.142,269.353
					c0,0,5.173-1.249,6.777,2.497"/>
				<path fill="#1E1E1C" d="M319.619,287.754c-1.729-1.247-3.947-1.127-4.957,0.27c-0.84,1.163-0.564,2.838,0.543,4.088
					c-0.377,0.662-2.952,5.389-1.646,9.302c0.172,0.52,0.733,0.8,1.253,0.627c0.521-0.173,0.801-0.733,0.628-1.255
					c-0.941-2.822,0.859-6.514,1.381-7.491c1.548,0.685,3.25,0.427,4.1-0.747C321.927,291.148,321.345,289.002,319.619,287.754z"/>
				<g>
					<g>
						<circle fill="#FFFFFF" cx="311.198" cy="274.971" r="11.147"/>
						<circle fill="#1E1E1C" cx="315.479" cy="276.219" r="3.122"/>
					</g>
					<g>
						<circle fill="#FFFFFF" cx="338.487" cy="287.455" r="11.325"/>
						<circle fill="#1E1E1C" cx="334.137" cy="288.725" r="3.171"/>
					</g>
				</g>
			</g>
			<path fill="#FBBF43" stroke="#1E1E1C" stroke-width="2.8346" d="M312.939,300.811c0,0-8.541,6.78-8.164,13.938
				c0.378,6.656,9.293,8.414,9.419,2.512c0.125-5.901,0.503-10.297,2.888-13.311C319.467,301.689,314.445,303.572,312.939,300.811z"
				/>
			<path fill="#FBBF43" stroke="#1E1E1C" stroke-width="2.8346" d="M329.765,307.592c0,0-4.145,14.941,5.524,15.193
				c4.771,0.125,4.771-5.902,3.39-9.041c-1.381-3.141-1.13-4.395,1.005-6.781C335.29,308.847,332.276,308.345,329.765,307.592z"/>
			<path fill="#FBBF43" stroke="#1E1E1C" stroke-width="2.8346" d="M353.874,296.666c0,0,12.809-1.883,10.423,5.902
				c-1.633,5.023-8.539-0.753-11.553-0.753s1.884,6.027-2.762,6.153c-4.646,0.125-8.666,0.125-2.387-4.396
				C353.874,299.053,353.874,296.666,353.874,296.666z"/>
		</g>
	</g>
	<g>
		<g>
			<path fill="#ADCB54" stroke="#1E1E1C" stroke-width="1.2771" d="M539.13,361.461c0,0,1.825-4.917,9.553-3.154
				C546.544,365.305,540.837,363.227,539.13,361.461z"/>
			<path fill="#ADCB54" stroke="#1E1E1C" stroke-width="1.2771" d="M538.798,361.848c0,0-1.431-5.045-9.277-3.901
				C531.101,365.092,536.957,363.472,538.798,361.848z"/>
			<path fill="#ADCB54" stroke="#1E1E1C" stroke-width="1.2771" d="M540.317,365.201c0,0.78-0.633,1.412-1.413,1.412l0,0
				c-0.781,0-1.414-0.632-1.414-1.412v-11.643c0-0.781,0.633-1.414,1.414-1.414l0,0c0.78,0,1.413,0.633,1.413,1.414V365.201z"/>
		</g>
		<g>
			<ellipse fill="#E85396" stroke="#1E1E1C" stroke-width="1.2771" cx="538.975" cy="334.784" rx="4.306" ry="6.026"/>
			
				<ellipse transform="matrix(0.0338 -0.9994 0.9994 0.0338 164.7235 863.3068)" fill="#E85396" stroke="#1E1E1C" stroke-width="1.2771" cx="528.856" cy="346.46" rx="4.306" ry="6.026"/>
			
				<ellipse transform="matrix(-0.191 0.9816 -0.9816 -0.191 993.4797 -125.2971)" fill="#E85396" stroke="#1E1E1C" stroke-width="1.2771" cx="548.373" cy="346.747" rx="4.305" ry="6.025"/>
			<path fill="#E85396" stroke="#1E1E1C" stroke-width="1.2771" d="M549.396,341.952c-2.976,1.486-6.252,0.969-7.313-1.16
				c-1.063-2.127,0.49-5.057,3.467-6.544c2.979-1.486,6.255-0.967,7.316,1.162C553.927,337.537,552.375,340.466,549.396,341.952z"/>
			<path fill="#E85396" stroke="#1E1E1C" stroke-width="1.2771" d="M539.772,354.803c-2.011-2.65-2.104-5.967-0.21-7.4
				c1.895-1.438,5.062-0.452,7.073,2.199c2.011,2.652,2.104,5.966,0.21,7.404C544.951,358.441,541.785,357.455,539.772,354.803z"/>
			
				<ellipse transform="matrix(-0.5693 -0.8222 0.8222 -0.5693 548.1182 991.8525)" fill="#E85396" stroke="#1E1E1C" stroke-width="1.2771" cx="533.878" cy="352.345" rx="4.306" ry="6.025"/>
			
				<ellipse transform="matrix(0.6196 -0.7849 0.7849 0.6196 -63.6138 545.5504)" fill="#E85396" stroke="#1E1E1C" stroke-width="1.2771" cx="531.082" cy="338.411" rx="4.306" ry="6.025"/>
			<circle fill="#FFE505" stroke="#1E1E1C" stroke-width="1.2771" cx="538.827" cy="345.385" r="6.386"/>
		</g>
	</g>
	<g>
		<g>
			<g>
				<path fill="#E85396" stroke="#1E1E1C" stroke-width="4.5593" stroke-linecap="round" d="M538.979,124.113
					c9.636-15.501,6.47-34.893-7.071-43.31c-13.543-8.418-32.332-2.675-41.968,12.827c-8.161,13.128-7.137,29.045,1.595,38.724
					l-3.803,3.254l9.75,6.05l1.627-3.56C512.433,144.742,529.83,138.831,538.979,124.113z"/>
				<g>
					<polygon fill="#FFFFFF" points="529.625,115.497 527.714,119.151 529.641,122.796 525.576,122.11 522.705,125.07 
						522.103,120.991 518.402,119.177 522.093,117.342 522.677,113.26 525.562,116.206 					"/>
					<polygon fill="#FFFFFF" points="537.449,101.092 535.718,104.401 537.466,107.702 533.783,107.08 531.185,109.76 
						530.637,106.066 527.285,104.423 530.628,102.761 531.158,99.065 533.771,101.732 					"/>
					<polygon fill="#FFFFFF" points="513.203,96.87 510.801,101.466 513.226,106.05 508.113,105.187 504.502,108.91 503.742,103.78 
						499.085,101.497 503.732,99.189 504.464,94.056 508.093,97.759 					"/>
				</g>
			</g>
			<g>
				<path fill="#ADCB54" stroke="#1E1E1C" stroke-width="4.0914" stroke-linecap="round" d="M541.1,171.572
					c7.796-14.408,3.913-31.605-8.671-38.414c-12.584-6.809-29.104-0.651-36.899,13.754c-6.603,12.202-4.825,26.404,3.519,34.602
					l-3.23,3.12l9.061,4.894l1.265-3.276C518.439,191.481,533.701,185.247,541.1,171.572z"/>
				<polygon fill="#AEC914" stroke="#FFFFFF" stroke-width="1.5888" stroke-linecap="round" points="536.211,151.936 
					535.188,156.083 538.023,159.279 533.765,159.586 531.603,163.27 529.993,159.314 525.821,158.397 529.087,155.642 
					528.669,151.393 532.297,153.646 				"/>
				<polygon fill="#F6A506" stroke="#FFFFFF" stroke-width="1.5894" stroke-linecap="round" points="515.435,164.138 
					516.035,169.357 520.673,171.822 515.892,174.004 514.981,179.178 511.429,175.306 506.228,176.038 508.812,171.464 
					506.509,166.744 511.658,167.787 				"/>
				<g>
					<polygon fill="#FFFFFF" points="530.925,170.004 529.656,172.831 531.269,175.48 528.186,175.149 526.167,177.5 
						525.529,174.467 522.669,173.271 525.357,171.727 525.611,168.637 527.91,170.718 					"/>
					<polygon fill="#FFFFFF" points="520.611,144.893 519.375,147.647 520.945,150.225 517.945,149.902 515.978,152.193 
						515.358,149.238 512.572,148.075 515.19,146.572 515.436,143.564 517.673,145.589 					"/>
				</g>
			</g>
			<g>
				<path fill="#BCE3F9" stroke="#1E1E1C" stroke-width="4.7762" stroke-linecap="round" d="M507.648,130.951
					c-4.705-18.531-21.646-30.22-37.834-26.107c-16.189,4.112-25.496,22.47-20.788,41.002c3.985,15.696,16.748,26.48,30.397,26.914
					l-0.306,5.235l11.648-2.968l-1.505-3.813C503.952,165.974,512.121,148.546,507.648,130.951z"/>
				<polygon fill="#1E9CD8" stroke="#FFFFFF" stroke-width="2.2289" stroke-linecap="round" points="466.584,115.983 
					468.49,121.664 474.25,123.316 469.433,126.883 469.643,132.872 464.761,129.396 459.13,131.445 460.931,125.729 
					457.241,121.007 463.234,120.951 				"/>
				<polygon fill="#FFFFFF" points="490.155,150.995 491.309,154.44 494.8,155.44 491.881,157.604 492.009,161.232 489.05,159.126 
					485.638,160.367 486.728,156.903 484.492,154.04 488.125,154.008 				"/>
				<g>
					<polygon fill="#FFFFFF" points="463.214,144.666 464.458,148.375 468.217,149.454 465.074,151.781 465.21,155.691 
						462.027,153.421 458.35,154.76 459.523,151.029 457.115,147.945 461.027,147.909 					"/>
					<polygon fill="#FFFFFF" points="494.326,126.598 495.447,129.94 498.833,130.911 496.001,133.009 496.125,136.53 
						493.255,134.485 489.945,135.69 491.001,132.33 488.833,129.553 492.356,129.52 					"/>
				</g>
			</g>
			<path fill="none" stroke="#1E1E1C" stroke-width="4.252" stroke-linecap="round" d="M484.132,176.74c0,0,2.384,2.862,0.158,9.223
				"/>
			<path fill="none" stroke="#1E1E1C" stroke-width="4.252" stroke-linecap="round" d="M500.511,187.713
				c0,0-1.113,3.973-4.771,4.769"/>
		</g>
		<path fill="#1DAFE6" stroke="#1E1E1C" stroke-width="2.8346" d="M390.39,232.115v76.075c0,0-4.075,28.8,16.03,33.418
			c20.106,4.62,52.71,6.521,84.771,4.347c23.094-1.357,33.418-6.791,33.689-34.775c0.271-27.985,0-80.966,0-80.966L390.39,232.115z"
			/>
		<g>
			<path fill="#E85396" stroke="#1E1E1C" stroke-width="2.8346" d="M392.645,222.025c0,0,11.653-46.848,63.97-47.323
				c17.121,0.476,67.061,13.792,65.872,48.513C398.829,226.543,392.645,222.025,392.645,222.025z"/>
			<g>
				<path fill="#A8599E" stroke="#FFFFFF" stroke-width="2.8346" d="M438.616,224.42c-1.093-7.868-2.685-33.593,19.688-49.636
					c-0.593-0.04-1.157-0.067-1.689-0.082c-1.215,0.011-2.4,0.055-3.571,0.115c-11.19,5.657-35.784,21.207-37.479,49.213
					C421.558,224.225,429.11,224.37,438.616,224.42z"/>
				<path fill="#A8599E" stroke="#FFFFFF" stroke-width="2.8346" d="M501.435,223.732c-1.752-9.489-8.35-32.428-31.979-42.847
					c-3.378-1.056-5.113-3.33-6.002-5.532c-1.274-0.188-2.477-0.334-3.598-0.441c-0.198,2.759,3.332,8.402,15.069,23.809
					c5.35,8.773,3.576,22.74,3.166,25.451C485.257,224.063,493.022,223.918,501.435,223.732z"/>
			</g>
			<g>
				<circle fill="#E85396" stroke="#1E1E1C" stroke-width="2.8346" cx="456.376" cy="170.896" r="9.084"/>
				<circle fill="#FFFFFF" cx="459.468" cy="169.232" r="2.854"/>
			</g>
		</g>
		<g>
			<path fill="#FEEB17" stroke="#1E1E1C" stroke-width="2.8346" d="M531.286,227.376c0,3.871-3.087,7.009-6.896,7.009H391.456
				c-3.808,0-6.896-3.138-6.896-7.009l0,0c0-3.871,3.088-7.009,6.896-7.009H524.39C528.199,220.367,531.286,223.505,531.286,227.376
				L531.286,227.376z"/>
			<g>
				<circle fill="#FFFFFF" cx="398.234" cy="227.138" r="3.448"/>
				<circle fill="#FFFFFF" cx="412.502" cy="227.138" r="3.448"/>
				<circle fill="#FFFFFF" cx="427.008" cy="227.138" r="3.448"/>
				<circle fill="#FFFFFF" cx="444.843" cy="227.138" r="3.448"/>
				<circle fill="#FFFFFF" cx="473.379" cy="227.138" r="3.448"/>
				<circle fill="#FFFFFF" cx="489.55" cy="227.138" r="3.448"/>
				<circle fill="#FFFFFF" cx="504.056" cy="227.138" r="3.448"/>
				<circle fill="#FFFFFF" cx="519.513" cy="227.138" r="3.448"/>
			</g>
		</g>
		<path fill="#83D0F5" stroke="#D3ECFB" stroke-width="4.252" d="M418.408,307.654l0.256-40.127c0,0,1.881-24.178,39.707-24.689
			c19.424-0.256,36.201,6.287,36.201,30.313s-3.578,39.615-3.578,39.615L418.408,307.654z"/>
		<g>
			<g>
				<path fill="#FEEB17" d="M428.396,166.346c0,0-1.135-4.767-9.533-6.128c-8.397-1.362-4.085-7.036-8.852-5.901
					c-4.766,1.135-3.859,18.611,10.213,24.739C421.359,171.339,426.125,169.296,428.396,166.346z"/>
				<path fill="#FEEB17" d="M424.78,169.415c0,0,9.274-11.415,23.722-0.356c13.732,10.701,16.765,9.988,13.732,19.619
					c-3.031,9.274-4.637,12.842-7.134,14.803c-2.497,1.963-0.356,14.626-2.676,22.117c-4.637-14.09-6.624-19.617-20.701-27.199
					c-13.364-7.402-28.524-5.439-34.588-1.159c8.383-6.065,18.905-11.415,22.829-19.085
					C423.888,170.485,422.64,171.913,424.78,169.415z"/>
				<path fill="#FEEB17" stroke="#1E1E1C" stroke-width="2.8346" d="M462.439,179.282c0,0,6.355,3.405,10.895,7.944
					s9.986,2.724,9.986,5.902c0,3.177-9.532,10.214-24.285,3.632C463.121,188.134,463.121,183.822,462.439,179.282z"/>
				
					<ellipse transform="matrix(0.8836 0.4683 -0.4683 0.8836 152.5062 -170.7205)" fill="#FEEB17" cx="419.571" cy="221.329" rx="34.189" ry="25.952"/>
				<path fill="#FEEB17" d="M458.845,290.339c-10.701-22.115-9.839-36.534-9.453-44.767c0.139-2.955-0.1-5.134-0.52-6.711
					c-4.775,7.354-14.019,10.998-24.283,10.361c2.154,2.321,5.436,11.75,4.828,48.072c-0.357,7.49,1.248,10.701,14.625,10.701
					S469.546,312.455,458.845,290.339z"/>
				<g>
					<polygon fill="#FAB90B" stroke="#1E1E1C" stroke-width="2.8346" points="445.125,159.029 445.027,164.946 451.142,168.498 
						451.437,160.016 					"/>
					<path fill="#FAB90B" stroke="#1E1E1C" stroke-width="2.8346" d="M457.455,163.764l-7.102,3.156l5.129,5.918l5.621-4.833
						C461.103,168.004,459.427,162.876,457.455,163.764z"/>
					<circle fill="#FEEB17" stroke="#1E1E1C" stroke-width="2.8346" cx="448.481" cy="149.891" r="10.554"/>
					<circle fill="#FEEB17" stroke="#1E1E1C" stroke-width="2.8346" cx="467.546" cy="160.105" r="10.1"/>
					<circle fill="#FAB90B" cx="472.043" cy="161.568" r="2.675"/>
				</g>
				<path fill="#1E1E1C" stroke="#1E1E1C" stroke-width="2.8346" d="M429.53,159.991c0,0,14.073-1.134,27.236,10.44
					c11.12,9.759,2.95,11.801-1.362,11.12c0.681,3.178-2.27,7.944-3.631-1.588c-0.455-6.809-3.633,1.815-7.718,3.631
					c-4.085,1.815,6.129-12.483-1.134-11.802c-5.221,0.681,0.682-4.085-9.76-0.453c-2.496,0.68,1.816-6.583-1.135-7.717
					C429.076,162.487,426.58,159.763,429.53,159.991z"/>
				<circle fill="#FAB90B" cx="445.112" cy="145.694" r="2.675"/>
				<g>
					
						<ellipse transform="matrix(0.9217 0.3878 -0.3878 0.9217 108.1577 -157.5254)" fill="#1E1E1C" cx="444.37" cy="189.213" rx="2.219" ry="2.854"/>
					
						<ellipse transform="matrix(0.9289 0.3704 -0.3704 0.9289 98.74 -147.284)" fill="#1E1E1C" cx="432.901" cy="183.479" rx="2.219" ry="2.854"/>
				</g>
				<g>
					
						<ellipse transform="matrix(0.929 0.37 -0.37 0.929 113.0004 -149.316)" fill="#EB6089" cx="445.694" cy="219.879" rx="3.61" ry="3.571"/>
					
						<ellipse transform="matrix(0.929 0.3701 -0.3701 0.929 103.1829 -135.5255)" fill="#EB6089" cx="404.792" cy="201.148" rx="3.61" ry="3.57"/>
				</g>
				<path fill="none" stroke="#1E1E1C" stroke-width="2.8346" stroke-linecap="round" d="M400.514,208.376
					c0,0-4.205,18.157,14.718,26.567c14.143,6.307,23.318-2.866,27.332-10.512"/>
				<path fill="none" stroke="#1E1E1C" stroke-width="2.8346" stroke-linecap="round" d="M397.647,206.656
					c0,0,2.102,1.338,6.308,1.338"/>
				<path fill="#FABC44" stroke="#1E1E1C" stroke-width="2.8346" stroke-linecap="round" d="M403.189,225.196
					c0,0-1.709,9.407,6.499,13.188c6.809,3.135,12.806,1.911,14.144-0.956C413.128,235.135,407.777,233.033,403.189,225.196z"/>
				<g>
					<path fill="#FAB90B" d="M409.085,159.249c-0.582,0-1.139,0.104-1.657,0.287c-0.114,2.766,0.58,6.27,2.31,9.654
						c2.449-0.321,4.342-2.41,4.342-4.947C414.08,161.485,411.843,159.249,409.085,159.249z"/>
					<path fill="#FAB90B" d="M426.919,163.944c-1.302-1.398-3.701-3.02-8.057-3.726c-0.36-0.059-0.688-0.127-1.004-0.201
						c-0.471,0.762-0.748,1.659-0.748,2.621c0,2.758,2.235,4.994,4.994,4.994C424.412,167.632,426.345,166.067,426.919,163.944z"/>
					<path fill="#FAB90B" d="M411.354,187.446c0.785,2.28,2.942,3.92,5.489,3.92c3.209,0,5.81-2.601,5.81-5.81
						c0-2.526-1.613-4.668-3.864-5.469C416.953,182.767,414.335,185.172,411.354,187.446z"/>
					<path fill="#FAB90B" d="M451.711,193.379c-3.905,0-7.071,3.164-7.071,7.07s3.166,7.07,7.071,7.07
						c0.767,0,1.504-0.125,2.196-0.352c0.176-1.811,0.51-3.15,1.192-3.688c1.278-1.004,2.321-2.434,3.442-4.826
						C457.748,195.619,454.996,193.379,451.711,193.379z"/>
					<path fill="#FAB90B" d="M472.606,186.526c-2.589-2.429-5.588-4.472-7.657-5.765c-1.213,0.911-2.001,2.358-2.001,3.992
						c0,2.759,2.235,4.994,4.993,4.994C470.076,189.748,471.89,188.408,472.606,186.526z"/>
					<path fill="#FAB90B" d="M474.718,192.244c-2.758,0-4.993,2.236-4.993,4.995c0,0.803,0.194,1.56,0.53,2.231
						c4.006,0.087,7.217-0.886,9.455-2.17c0-0.021,0.002-0.041,0.002-0.062C479.712,194.48,477.478,192.244,474.718,192.244z"/>
				</g>
				<g>
					<path fill="#FAB90B" d="M433.23,292.68c-1.352,0-2.626,0.318-3.764,0.873c-0.012,1.217-0.027,2.459-0.049,3.742
						c-0.305,6.398,0.828,9.672,9.5,10.49c1.8-1.581,2.941-3.893,2.941-6.478C441.859,296.541,437.997,292.68,433.23,292.68z"/>
					<path fill="#FAB90B" d="M431.191,257.959c-1.227,0-2.385,0.283-3.426,0.775c0.597,3.607,1.102,8.478,1.408,15.029
						c0.646,0.167,1.32,0.266,2.018,0.266c4.439,0,8.035-3.598,8.035-8.035C439.226,261.555,435.63,257.959,431.191,257.959z"/>
					<path fill="#FAB90B" d="M451.111,268.885c-1.006-0.41-2.104-0.64-3.256-0.64c-4.768,0-8.629,3.86-8.629,8.628
						c0,4.766,3.861,8.629,8.629,8.629c3.009,0,5.653-1.541,7.197-3.873C453.257,276.984,451.991,272.741,451.111,268.885z"/>
					<path fill="#FAB90B" d="M449.224,254.089c-0.088-3.357,0.059-6.185,0.168-8.517c0.029-0.615,0.039-1.19,0.036-1.741
						c-0.928-0.812-2.081-1.368-3.354-1.568c-2.104,2.066-4.649,3.697-7.515,4.862c-0.148,0.559-0.236,1.142-0.236,1.747
						c0,3.702,2.998,6.7,6.699,6.7C446.615,255.572,448.074,255.016,449.224,254.089z"/>
				</g>
				<path fill="none" stroke="#1E1E1C" stroke-width="2.8346" d="M428.396,166.346c0,0-1.135-4.767-9.533-6.128
					c-8.397-1.362-4.085-7.036-8.852-5.901c-4.766,1.135-3.859,18.611,10.213,24.739
					C421.359,171.339,426.125,169.296,428.396,166.346z"/>
				<path fill="none" stroke="#1E1E1C" stroke-width="2.8346" stroke-linecap="round" d="M424.78,169.415
					c0,0,9.274-11.415,23.722-0.356c13.732,10.701,16.765,9.988,13.732,19.619c-3.031,9.274-4.637,12.842-7.134,14.803
					c-2.497,1.963-0.356,14.626-2.676,22.117c-4.637-14.09-6.624-19.617-20.701-27.199c-13.364-7.402-28.524-5.439-34.588-1.159
					c8.383-6.065,18.905-11.415,22.829-19.085C423.888,170.485,422.64,171.913,424.78,169.415z"/>
				<path fill="none" stroke="#1E1E1C" stroke-width="2.8346" d="M462.439,179.282c0,0,6.355,3.405,10.895,7.944
					s9.986,2.724,9.986,5.902c0,3.177-9.532,10.214-24.285,3.632C463.121,188.134,463.121,183.822,462.439,179.282z"/>
				
					<ellipse transform="matrix(0.8836 0.4683 -0.4683 0.8836 152.5062 -170.7205)" fill="none" stroke="#1E1E1C" stroke-width="2.8346" cx="419.571" cy="221.329" rx="34.189" ry="25.952"/>
				<path fill="none" stroke="#1E1E1C" stroke-width="2.8346" stroke-linecap="round" d="M458.845,290.339
					c-10.701-22.115-9.839-36.534-9.453-44.767c0.139-2.955-0.1-5.134-0.52-6.711c-4.775,7.354-14.019,10.998-24.283,10.361
					c2.154,2.321,5.436,11.75,4.828,48.072c-0.357,7.49,1.248,10.701,14.625,10.701S469.546,312.455,458.845,290.339z"/>
			</g>
			<g>
				<path fill="#FEEB17" stroke="#1E1E1C" stroke-width="2.8346" stroke-linecap="round" d="M459.703,254.576
					c0,0,5.834,18.752,11.668,18.961s-3.542-18.334-6.668-20.836C461.787,250.41,460.328,254.785,459.703,254.576z"/>
				<path fill="#1E1E1C" d="M470.127,247.969c-0.997-0.749-3.071-0.458-4.979,0.053c-0.029-0.072-0.063-0.139-0.094-0.209
					c1.399-1.18,3.18-2.313,4.324-2.123c0.386,0.064,0.751-0.195,0.814-0.581c0.064-0.386-0.195-0.75-0.582-0.814
					c-1.773-0.296-3.905,1.126-5.33,2.313c-0.328-0.382-0.709-0.716-1.133-0.989c0.51-1.023,1.128-1.889,1.709-2.017
					c0.381-0.085,0.621-0.464,0.537-0.845c-0.084-0.382-0.463-0.622-0.844-0.538c-1.173,0.261-2.069,1.544-2.689,2.796
					c-0.209-0.064-0.428-0.111-0.648-0.149c-0.75-2.171-2.4-3.649-2.502-3.738c-0.295-0.257-0.74-0.228-0.998,0.065
					c-0.257,0.294-0.229,0.74,0.064,0.998c0.02,0.018,1.207,1.083,1.9,2.639c-0.852,0.107-1.64,0.417-2.313,0.884
					c-0.655-1.091-1.576-2.149-2.825-2.63c-0.365-0.141-0.774,0.041-0.914,0.406c-0.141,0.365,0.042,0.774,0.406,0.914
					c0.992,0.383,1.736,1.328,2.268,2.291c-0.09,0.107-0.172,0.221-0.252,0.335c-1.555-0.704-3.283-1.224-4.816-0.36
					c-0.341,0.191-0.462,0.623-0.27,0.963c0.191,0.342,0.623,0.463,0.963,0.27c0.971-0.546,2.237-0.169,3.484,0.393
					c-0.074,0.217-0.14,0.438-0.186,0.667c-1.736-0.072-4.148,0.124-4.541,1.695c-0.096,0.378,0.136,0.763,0.516,0.858
					c0.379,0.095,0.764-0.137,0.858-0.516c0.106-0.426,1.465-0.669,3.083-0.618c0.039,0.538,0.16,1.052,0.351,1.532
					c-2.096,0.699-3.616,1.818-3.712,1.89c-0.313,0.235-0.376,0.677-0.141,0.99c0.233,0.313,0.676,0.377,0.99,0.143
					c0.021-0.017,1.56-1.143,3.582-1.762c0.203,0.262,0.428,0.503,0.677,0.722c-0.325,0.777-0.569,1.689-0.417,2.505
					c0.115,0.62,0.449,1.13,0.966,1.475c0.325,0.218,0.765,0.129,0.981-0.196c0.217-0.324,0.129-0.764-0.195-0.98
					c-0.202-0.135-0.313-0.307-0.359-0.556c-0.077-0.411,0.044-0.936,0.235-1.448c0.677,0.322,1.432,0.508,2.231,0.508
					c2.047,0,3.813-1.183,4.664-2.9c1.397,0.182,2.598,0.522,2.848,0.961c0.193,0.339,0.626,0.457,0.965,0.263
					c0.34-0.193,0.457-0.626,0.264-0.966c-0.551-0.963-2.156-1.415-3.619-1.629c0.055-0.304,0.088-0.617,0.088-0.938
					c0-0.203-0.015-0.402-0.037-0.599c1.766-0.474,3.283-0.665,3.779-0.292c0.313,0.234,0.756,0.17,0.99-0.143
					S470.441,248.203,470.127,247.969z"/>
			</g>
		</g>
		<g>
			<g>
				<path fill="#E85396" stroke="#1E1E1C" stroke-width="2.8346" stroke-linecap="round" d="M476.216,259.816
					c0,0-2.272-25.221,6.387-30.525c8.66-5.304,15.046,2.273,9.093,11.582c-5.953,9.31-6.062,10.393-6.062,20.566
					C479.356,260.898,476.216,262.629,476.216,259.816z"/>
				<path fill="#FFFFFF" d="M479.573,259.707c0,0-2.273-24.246,5.953-24.462c5.304-0.108-0.975,9.2-2.057,16.345
					C482.387,258.732,484.876,260.574,479.573,259.707z"/>
			</g>
			<g>
				<path fill="#E85396" stroke="#1E1E1C" stroke-width="2.8346" stroke-linecap="round" d="M499.864,266.98
					c0,0,15.96-19.66,11.733-28.893c-4.227-9.234-13.753-6.51-14.008,4.537c-0.254,11.047-0.769,12.006-6.446,20.449
					C496.654,266.129,498.292,269.316,499.864,266.98z"/>
				<path fill="#FFFFFF" d="M497.138,265.02c0,0,15.418-18.853,8.711-23.623c-4.339-3.05-4.325,8.178-7.412,14.711
					C495.347,262.639,492.255,262.777,497.138,265.02z"/>
			</g>
			
				<ellipse fill="#E85396" stroke="#1E1E1C" stroke-width="2.8346" stroke-linecap="round" cx="481.709" cy="283.847" rx="25.669" ry="25.12"/>
			<g>
				<path fill="#FFFFFF" d="M463.363,286.475c0,0-1.069-8.441,6.064-13.198c6.302-4.519,11.891,0.833,10.463,6.54
					C478.464,285.523,470.14,296.818,463.363,286.475z"/>
				
					<ellipse transform="matrix(0.8994 0.4371 -0.4371 0.8994 170.2491 -178.6957)" fill="#1E1E1C" cx="473.352" cy="280.529" rx="2.021" ry="3.805"/>
				<path fill="#FFFFFF" d="M475.253,291.111c0,0-1.069-8.441,6.064-13.197c6.302-4.519,11.89,0.832,10.463,6.539
					S482.031,301.456,475.253,291.111z"/>
				
					<ellipse transform="matrix(0.8995 0.4368 -0.4368 0.8995 173.3212 -183.3265)" fill="#1E1E1C" cx="485.243" cy="285.166" rx="2.021" ry="3.806"/>
			</g>
			<path fill="#FFFFFF" stroke="#1E1E1C" stroke-width="2.8346" stroke-linecap="round" d="M450.878,292.301
				c0,0,11.058-14.627,26.158-3.093c10.464,3.806,20.094,7.729,19.976,11.892c0,3.21-11.177,12.365-23.661,6.302
				c-8.323-4.519-10.821-6.659-14.506-8.562C455.16,296.938,448.858,294.441,450.878,292.301z"/>
			<path fill="none" stroke="#1E1E1C" stroke-width="2.8346" stroke-linecap="round" d="M462.531,290.16c0,0-0.355,8.918,9.75,12.01
				c9.75,3.092,13.674-3.211,15.101-5.113"/>
			<circle fill="#1E1E1C" cx="476.799" cy="288.971" r="2.675"/>
		</g>
		<g>
			<path fill="#ADCB54" stroke="#1E1E1C" stroke-width="2.8346" d="M531.286,312.271c0,3.871-3.087,7.01-6.896,7.01H391.456
				c-3.808,0-6.896-3.139-6.896-7.01l0,0c0-3.871,3.088-7.009,6.896-7.009H524.39C528.199,305.263,531.286,308.4,531.286,312.271
				L531.286,312.271z"/>
			<g>
				<circle fill="#FFFFFF" cx="398.234" cy="312.033" r="3.448"/>
				<circle fill="#FFFFFF" cx="412.502" cy="312.033" r="3.448"/>
				<circle fill="#FFFFFF" cx="427.008" cy="312.033" r="3.448"/>
				<circle fill="#FFFFFF" cx="444.843" cy="312.033" r="3.448"/>
				<circle fill="#FFFFFF" cx="473.379" cy="312.033" r="3.448"/>
				<circle fill="#FFFFFF" cx="489.55" cy="312.033" r="3.448"/>
				<circle fill="#FFFFFF" cx="504.056" cy="312.033" r="3.448"/>
				<circle fill="#FFFFFF" cx="519.513" cy="312.033" r="3.448"/>
			</g>
		</g>
		<g>
			<g>
				<circle fill="#A8599E" stroke="#1E1E1C" stroke-width="4.0262" cx="420.272" cy="338.215" r="25.335"/>
				<circle fill="none" stroke="#FFFFFF" stroke-width="5.3682" stroke-dasharray="5.6693" cx="420.272" cy="338.215" r="19.83"/>
				<polygon fill="#FEEB17" stroke="#FFFFFF" stroke-width="2.6841" stroke-linejoin="round" points="425.224,351.928 
					418.473,345.106 409.025,346.801 413.427,338.271 408.896,329.811 418.369,331.36 425.015,324.438 426.468,333.925 
					435.107,338.106 426.533,342.419 				"/>
			</g>
			<g>
				<circle fill="#A8599E" stroke="#1E1E1C" stroke-width="4.0262" cx="494.11" cy="338.215" r="25.335"/>
				<circle fill="none" stroke="#FFFFFF" stroke-width="5.3682" stroke-dasharray="5.6693" cx="494.111" cy="338.215" r="19.829"/>
				<polygon fill="#FEEB17" stroke="#FFFFFF" stroke-width="2.6841" stroke-linejoin="round" points="499.062,351.928 
					492.311,345.106 482.864,346.801 487.265,338.271 482.734,329.811 492.207,331.36 498.853,324.438 500.306,333.925 
					508.945,338.106 500.371,342.419 				"/>
			</g>
		</g>
		<g>
			<circle fill="#FEEB17" stroke="#1E1E1C" stroke-width="2.8346" stroke-linecap="round" cx="428.53" cy="305.215" r="8.037"/>
			<path fill="none" stroke="#1E1E1C" stroke-width="2.8346" stroke-linecap="round" d="M426.783,307.261
				c0,0-0.699,2.896,3.395,5.092"/>
		</g>
		<g>
			<path fill="#E85396" stroke="#1E1E1C" stroke-width="2.8346" stroke-linecap="round" d="M457.656,305.617
				c0,0,0.951,7.492,9.156,5.232c4.518,0.356,3.924-0.356,5.826-2.141c2.854-0.713,3.209-3.686,1.902-6.539
				c-1.309-2.854-5.352-4.876-10.346-4.043C459.201,298.959,457.419,302.051,457.656,305.617z"/>
			<path fill="none" stroke="#1E1E1C" stroke-width="2.8346" stroke-linecap="round" d="M464.498,305.702
				c0,0,3.16-0.359,2.442,5.313"/>
			<path fill="none" stroke="#1E1E1C" stroke-width="2.8346" stroke-linecap="round" d="M470.888,303.475
				c0,0,1.58,2.012,1.006,6.033"/>
		</g>
		<g>
			<path fill="#E85396" stroke="#1E1E1C" stroke-width="2.4207" stroke-linecap="round" d="M488.312,306.69
				c0,0,0.812,6.397,7.818,4.468c3.858,0.305,3.352-0.305,4.976-1.826c2.437-0.609,2.741-3.148,1.624-5.586
				s-4.569-4.164-8.833-3.453C489.632,301.005,488.109,303.645,488.312,306.69z"/>
			<path fill="none" stroke="#1E1E1C" stroke-width="2.4207" stroke-linecap="round" d="M494.155,306.762
				c0,0,2.698-0.306,2.085,4.539"/>
			<path fill="none" stroke="#1E1E1C" stroke-width="2.4207" stroke-linecap="round" d="M499.613,304.861
				c0,0,1.349,1.717,0.858,5.152"/>
		</g>
	</g>
	<g>
		<g>
			<g>
				<path fill="#FEEB17" stroke="#1E1E1C" stroke-width="1.9843" d="M151.551,263.189c0,0-7.06,6.63-7.273,12.62
					c3.636,7.701,23.958,5.776,33.798,5.99c9.841,0.214,19.252-0.642,15.188-7.701C189.198,267.039,164.171,260.836,151.551,263.189
					z"/>
				<g>
					<polyline fill="#1DAFE6" points="154.769,281.454 154.769,281.454 154.769,281.454 154.769,281.454 154.769,281.454 
						154.769,281.454 					"/>
					<path fill="#1DAFE6" d="M133.099,261.346c-0.148-5.08,0.02-11.248-0.044-18.678c-0.237-28.061-0.714-41.378-14.03-44.945
						c-13.318-3.566-4.756,2.141-12.365,4.518c-7.611,2.379-14.507,0.715-15.934-5.469c-60.402,10.465-71.104,61.115-71.104,61.115
						c-4.518,14.269-5.707,30.678-4.28,48.751c4.519,43.043,68.25,40.901,68.25,40.901s16.884,0,52.792-0.236
						c35.908-0.238,27.11-3.093,55.408-6.66c28.299-3.566,24.019-29.25,23.781-44.707c-0.238-15.456-10.227-14.98-10.227-14.98
						s-27.52,0.916-50.578,0.499c0,0-17.02,0.651-19.693-8.089c-2.587-8.561-1.784-8.025-1.963-12.039"/>
					<path fill="#1DAFE6" d="M153.267,281.361c0.42,0.009,0.84,0.018,1.262,0.024c-1.74-0.203-6.756-0.856-8.811-7.767
						c-4.711-12.816-11.43-12.556-12.859-12.342C133.271,275.381,136.132,281.012,153.267,281.361z"/>
				</g>
				<path fill="#BCE3F9" stroke="#EAF6FD" stroke-width="2.8346" d="M66.884,203.865c-39.33,17.422-47.057,53.953-47.057,53.953
					c-0.713,2.252-1.334,4.563-1.883,6.92c10.005,0.771,26.787,1.792,39.456,1.166c19.263-0.951,29.011-13.079,30.2-39.476
					C88.558,210.02,76.936,205.092,66.884,203.865z"/>
				<g>
					<circle fill="#EB6089" cx="51.13" cy="281.719" r="6.539"/>
					<circle fill="#FFFFFF" cx="53.151" cy="279.697" r="2.616"/>
				</g>
				<g>
					<circle fill="#1E1E1C" cx="32.938" cy="245.689" r="3.567"/>
					<circle fill="#1E1E1C" cx="42.093" cy="255.084" r="3.923"/>
				</g>
				<path fill="#1DAFE6" stroke="#1E1E1C" stroke-width="2.8346" d="M90.485,196.703c1.428,6.184,8.324,7.848,15.934,5.47
					c6.752-2.109,0.786-6.835,8.652-5.384c0.093-0.492,0.146-0.997,0.146-1.516v-4.749c0-4.468-3.621-8.089-8.089-8.089h-8.792
					c-4.467,0-8.089,3.622-8.089,8.089v4.749c0,0.495,0.052,0.979,0.138,1.449C90.419,196.717,90.452,196.711,90.485,196.703z"/>
				<path fill="none" stroke="#1E1E1C" stroke-width="1.9843" stroke-linecap="round" d="M38.884,287.793
					c0,0-0.793,5.289,6.084,4.761"/>
				<path fill="none" stroke="#1E1E1C" stroke-width="1.9843" stroke-linecap="round" d="M14.795,299.552
					c0,0,10.894,2.603,18.286-0.612c7.051-3.066,7.662-7.051,7.662-7.051"/>
				<path fill="#E40D7E" stroke="#FFFFFF" stroke-width="4.252" stroke-linecap="round" d="M205.362,297.889
					c0,5.896-4.828,10.677-10.785,10.677H76.285c-5.957,0-10.786-4.78-10.786-10.677l0,0c0-5.896,4.829-10.676,10.786-10.676
					h118.292C200.534,287.213,205.362,291.993,205.362,297.889L205.362,297.889z"/>
				<circle fill="#FFFFFF" cx="76.396" cy="298.424" r="5.173"/>
				<text transform="matrix(0.938 0 0 1 87.6553 303.0615)"><tspan x="0" y="0" fill="#1DAFE6" font-family="'FZCSJW--GB1-0'" font-size="17.1219">T</tspan><tspan x="8.407" y="0" fill="#F6A506" font-family="'FZCSJW--GB1-0'" font-size="13.8274">R</tspan><tspan x="15.942" y="0" fill="#F29EC3" font-family="'FZCSJW--GB1-0'" font-size="13.8274">A</tspan><tspan x="24.391" y="0" fill="#ADCB54" font-family="'FZCSJW--GB1-0'" font-size="13.8274">I</tspan><tspan x="27.502" y="0" fill="#A1D8F6" font-family="'FZCSJW--GB1-0'" font-size="13.8274">N</tspan><tspan x="36.6" y="0" fill="#1E1E1C" font-family="'FZCSJW--GB1-0'" font-size="13.8274">  </tspan><tspan x="41.412" y="0" fill="#F6A506" font-family="'FZCSJW--GB1-0'" font-size="17.1219">T</tspan><tspan x="49.819" y="0" fill="#1DAFE6" font-family="'FZCSJW--GB1-0'" font-size="13.8274">R</tspan><tspan x="57.354" y="0" fill="#ADCB54" font-family="'FZCSJW--GB1-0'" font-size="13.8274">A</tspan><tspan x="65.803" y="0" fill="#F29EC3" font-family="'FZCSJW--GB1-0'" font-size="13.8274">V</tspan><tspan x="73.67" y="0" fill="#A1D8F6" font-family="'FZCSJW--GB1-0'" font-size="13.8274">E</tspan><tspan x="80.377" y="0" fill="#FDED4A" font-family="'FZCSJW--GB1-0'" font-size="13.8274">L</tspan></text>
				<ellipse fill="#1E1E1C" cx="136.166" cy="270.229" rx="2.983" ry="2.33"/>
				<path fill="#EAF6FD" d="M95.48,196.348c0,1.115-0.905,2.021-2.021,2.021l0,0c-1.116,0-2.021-0.905-2.021-2.021v-3.33
					c0-1.117,0.904-2.021,2.021-2.021l0,0c1.116,0,2.021,0.905,2.021,2.021V196.348z"/>
				<g>
					<polyline fill="none" stroke="#1E1E1C" stroke-width="2.8346" points="154.769,281.454 154.769,281.454 154.769,281.454 
						154.769,281.454 154.769,281.454 154.769,281.454 					"/>
					<path fill="none" stroke="#1E1E1C" stroke-width="2.8346" d="M133.099,261.346c-0.148-5.08,0.02-11.248-0.044-18.678
						c-0.237-28.061-0.714-41.378-14.03-44.945c-13.318-3.566-4.756,2.141-12.365,4.518c-7.611,2.379-14.507,0.715-15.934-5.469
						c-60.402,10.465-71.104,61.115-71.104,61.115c-4.518,14.269-5.707,30.678-4.28,48.751c4.519,43.043,68.25,40.901,68.25,40.901
						s16.884,0,52.792-0.236c35.908-0.238,27.11-3.093,55.408-6.66c28.299-3.566,24.019-29.25,23.781-44.707
						c-0.238-15.456-10.227-14.98-10.227-14.98s-27.52,0.916-50.578,0.499c0,0-17.02,0.651-19.693-8.089
						c-2.587-8.561-1.784-8.025-1.963-12.039"/>
					<path fill="none" stroke="#1E1E1C" stroke-width="2.8346" d="M153.267,281.361c0.42,0.009,0.84,0.018,1.262,0.024
						c-1.74-0.203-6.756-0.856-8.811-7.767c-4.711-12.816-11.43-12.556-12.859-12.342
						C133.271,275.381,136.132,281.012,153.267,281.361z"/>
				</g>
				<g>
					<circle fill="#F6A506" stroke="#1E1E1C" stroke-width="2.7126" cx="18.313" cy="264.834" r="9.631"/>
					<circle fill="#FFFFFF" cx="16.648" cy="260.791" r="3.21"/>
				</g>
				<g>
					<g>
						<circle fill="#A8599E" stroke="#1E1E1C" stroke-width="4.252" cx="66.629" cy="340.479" r="26.756"/>
						<circle fill="none" stroke="#FFFFFF" stroke-width="5.6693" stroke-dasharray="5.6693" cx="66.629" cy="340.479" r="20.941"/>
						<polygon fill="#FEEB17" stroke="#FFFFFF" stroke-width="2.8346" stroke-linejoin="round" points="71.858,354.961 
							64.728,347.756 54.751,349.546 59.399,340.538 54.614,331.602 64.618,333.239 71.638,325.928 73.171,335.947 82.294,340.363 
							73.239,344.919 						"/>
					</g>
					<g>
						<circle fill="#A8599E" stroke="#1E1E1C" stroke-width="4.252" cx="178.278" cy="340.479" r="26.755"/>
						
							<circle fill="none" stroke="#FFFFFF" stroke-width="5.6693" stroke-dasharray="5.6693" cx="178.278" cy="340.479" r="20.941"/>
						<polygon fill="#FEEB17" stroke="#FFFFFF" stroke-width="2.8346" stroke-linejoin="round" points="183.507,354.961 
							176.378,347.756 166.399,349.546 171.048,340.538 166.263,331.602 176.267,333.239 183.286,325.928 184.82,335.947 
							193.943,340.363 184.888,344.919 						"/>
					</g>
				</g>
				<g>
					<path fill="#E40D7E" stroke="#1E1E1C" stroke-width="2.8346" d="M83.538,160.083c-0.103,0.754-2.361,18.556,10.919,25.044
						c1.44,0.704,3.179,0.106,3.882-1.333c0.704-1.44,0.107-3.178-1.333-3.883c-9.497-4.641-7.733-18.908-7.714-19.052
						c0.209-1.587-0.905-3.046-2.492-3.26C85.213,157.388,83.755,158.498,83.538,160.083z"/>
					<path fill="#E40D7E" stroke="#1E1E1C" stroke-width="2.8346" d="M116.749,156.14c-1.597,0.133-2.784,1.535-2.652,3.132
						c0.354,4.306,0.053,16.273-5.515,19.896c-1.343,0.875-1.724,2.672-0.849,4.017c0.874,1.343,2.673,1.723,4.016,0.849
						c9.449-6.149,8.295-23.31,8.133-25.246C119.747,157.192,118.346,156.007,116.749,156.14z"/>
					<ellipse fill="#E40D7E" stroke="#1E1E1C" stroke-width="2.8346" cx="102.03" cy="170.709" rx="4.855" ry="10.629"/>
					<path fill="#FEEB17" stroke="#1E1E1C" stroke-width="2.7126" d="M118.603,151.84c-16.608,3.876-32.221,0.054-32.376,0.014
						c-1.813-0.454-3.653,0.646-4.11,2.458c-0.457,1.812,0.64,3.651,2.452,4.109c0.698,0.176,17.308,4.277,35.573,0.015
						c1.821-0.425,2.953-2.247,2.528-4.067S120.423,151.416,118.603,151.84z"/>
					<path fill="#FEEB17" stroke="#1E1E1C" stroke-width="2.7126" d="M116.96,183.833c0,1.893-1.534,3.427-3.428,3.427H90.495
						c-1.893,0-3.428-1.534-3.428-3.427l0,0c0-1.894,1.535-3.429,3.428-3.429h23.037C115.426,180.405,116.96,181.94,116.96,183.833
						L116.96,183.833z"/>
				</g>
				<g>
					<path fill="#E85396" stroke="#1E1E1C" stroke-width="1.9843" d="M148.048,260.271c0,0-0.635,9.321,28.18,12.077
						c9.535-0.424,10.595,6.991,24.79,4.873c-4.874-4.449-5.086-7.204-5.086-7.204s2.755-1.271,5.51-3.179
						c-5.722-1.482-7.839-3.177-7.839-3.177S148.048,258.363,148.048,260.271z"/>
					<path fill="#FFFFFF" d="M179.196,203.012c-4.198-0.97-8.359-1.441-12.388-1.474c-1.831-5.222-8.827-21.646-22.377-14.318
						c-4.948,3.991-8.638,12.348,7.966,16.233c-11.834,3.43-20.799,11.244-23.243,21.828c-4.095,17.734,11.669,36.517,35.212,41.953
						c23.543,5.438,45.947-4.533,50.042-22.268S202.738,208.449,179.196,203.012z"/>
					<path fill="#FFFFFF" stroke="#1E1E1C" stroke-width="1.9843" d="M197.854,206.01c0,0,22.709-10.457,25.158,5.063
						c1.798,12.417-8.658,12.579-16.01,8.005C202.429,213.523,191.157,208.786,197.854,206.01z"/>
					<path fill="#D3ECFB" d="M180.082,203.234c-2.775,3.85-4.392,8.424-4.392,13.337c0,13.673,12.465,24.757,27.842,24.757
						c4.105,0,8-0.797,11.51-2.216C214.938,223.498,200.569,208.301,180.082,203.234z"/>
					<g>
						<g>
							
								<ellipse transform="matrix(0.9926 0.1212 -0.1212 0.9926 29.333 -15.1841)" fill="#EB6089" cx="139.466" cy="233.499" rx="4.697" ry="4.097"/>
							
								<ellipse transform="matrix(0.9926 0.1212 -0.1212 0.9926 31.3438 -22.8978)" fill="#EB6089" cx="203.871" cy="246.169" rx="4.697" ry="4.097"/>
						</g>
						<g>
							
								<ellipse transform="matrix(0.9884 0.152 -0.152 0.9884 37.9533 -26.6661)" fill="#1E1E1C" cx="193.416" cy="234.942" rx="2.847" ry="2.888"/>
							
								<ellipse transform="matrix(0.9884 0.152 -0.152 0.9884 36.2518 -20.475)" fill="#1E1E1C" cx="152.088" cy="226.948" rx="2.847" ry="2.888"/>
						</g>
						<g>
							<path fill="#1E1E1C" d="M173.146,232.982c-8.639-1.326-16.033,0.154-16.517,3.305c-0.438,2.859,4.958,6.108,12.407,7.68
								l-1.506,13.813c-0.147-0.039-0.299-0.064-0.441-0.115c-3.521-1.248-4.838-5.635-4.85-5.68
								c-0.156-0.534-0.717-0.844-1.254-0.688c-0.535,0.155-0.844,0.714-0.689,1.249c0.063,0.221,1.603,5.414,6.103,7.02
								c3.065,1.094,6.658,0.238,10.679-2.545c0.459-0.318,0.573-0.948,0.256-1.406c-0.318-0.459-0.948-0.574-1.408-0.256
								c-2.359,1.635-4.491,2.494-6.381,2.611l1.486-13.634c0.121,0.02,0.242,0.041,0.364,0.06
								c8.639,1.326,16.033-0.154,16.517-3.306C188.396,237.938,181.785,234.309,173.146,232.982z"/>
							
								<ellipse transform="matrix(0.9884 0.1517 -0.1517 0.9884 38.401 -24.4843)" fill="#FFFFFF" cx="179.69" cy="239.469" rx="2.318" ry="2.351"/>
						</g>
					</g>
					<path fill="#FFFFFF" stroke="#1E1E1C" stroke-width="1.9843" d="M164.686,276.078c0,0,7.715,0.267,12.769-4.521
						c5.055-4.789,13.527-3.605,9.303,3.484c-4.223,7.09-16.289,9.955-25.037,9.05c0.604,3.62-6.336,4.827-7.391,1.207
						c-6.485,0.151-7.089-2.716-3.771-6.033c-4.675-2.715-3.017-3.771,0.604-5.731c0.707-4.877,7.994-8.446,9.353,1.357
						C162.173,276.098,164.686,276.078,164.686,276.078z"/>
					<path fill="none" stroke="#1E1E1C" stroke-width="1.9843" d="M179.196,203.012c-4.198-0.97-8.359-1.441-12.388-1.474
						c-1.831-5.222-8.827-21.646-22.377-14.318c-4.948,3.991-8.638,12.348,7.966,16.233c-11.834,3.43-20.799,11.244-23.243,21.828
						c-4.095,17.734,11.669,36.517,35.212,41.953c23.543,5.438,45.947-4.533,50.042-22.268S202.738,208.449,179.196,203.012z"/>
					<g>
						<g>
							<path fill="none" stroke="#1E1E1C" stroke-width="1.9843" d="M183.276,196.902c-0.809-0.172-1.634-0.294-2.465-0.377
								c-0.041,0.445-0.092,0.957-0.151,1.519C181.626,197.579,182.519,197.2,183.276,196.902z"/>
							<path fill="#1DAFE6" stroke="#1E1E1C" stroke-width="1.9843" d="M180.66,198.044c0.06-0.562,0.11-1.073,0.151-1.519
								c-5.906-0.594-12.198,1.083-16.93,6.024c0,0,2.139,2.446,5.863,5.101C172.06,202.955,176.905,199.85,180.66,198.044z"/>
							<path fill="#ADCB54" stroke="#1E1E1C" stroke-width="1.9843" d="M169.745,207.65c2.197,1.564,4.947,3.196,8.139,4.447
								c1.548-4.373,2.379-10.33,2.776-14.054C176.905,199.85,172.06,202.955,169.745,207.65z"/>
							<path fill="#ADCB54" stroke="#1E1E1C" stroke-width="1.9843" d="M186.505,197.84c2.267,3.736,5.938,10.668,5.815,16.171
								c1.905-0.241,3.87-0.677,5.892-1.374C198.471,205.903,193.296,200.346,186.505,197.84z"/>
							<path fill="#1DAFE6" stroke="#1E1E1C" stroke-width="1.9843" d="M186.505,197.84c-1.043-0.386-2.121-0.703-3.229-0.938
								c-0.758,0.298-1.65,0.677-2.616,1.142c-0.397,3.724-1.229,9.681-2.776,14.054c4.147,1.627,9.039,2.595,14.437,1.913
								C192.442,208.508,188.771,201.576,186.505,197.84z"/>
						</g>
						
							<ellipse transform="matrix(0.9342 0.3568 -0.3568 0.9342 82.1877 -53.3687)" fill="#1DAFE6" stroke="#1E1E1C" stroke-width="2.538" cx="185.727" cy="196.05" rx="2.334" ry="3.744"/>
						<path fill="#ADCB54" stroke="#1E1E1C" stroke-width="1.9843" d="M198.145,211.968c0,0,12.908,3.165,10.769,9.587
							c-2.141,5.529-14.047,1.152-17.613-7.41C195.759,213.967,197.074,212.859,198.145,211.968z"/>
					</g>
				</g>
			</g>
			<circle fill="#FFFFFF" cx="195.179" cy="298.424" r="5.172"/>
		</g>
		<polygon fill="#FFFFFF" points="135.694,303.11 133.056,301.254 130.03,302.374 130.981,299.291 128.981,296.76 132.207,296.713 
			133.995,294.027 135.038,297.08 138.144,297.951 135.563,299.888 		"/>
	</g>
</g>
</svg>
