<?xml version="1.0" encoding="utf-8"?>
<!-- Generator: Adobe Illustrator 16.0.0, SVG Export Plug-In . SVG Version: 6.00 Build 0)  -->
<!DOCTYPE svg PUBLIC "-//W3C//DTD SVG 1.1//EN" "http://www.w3.org/Graphics/SVG/1.1/DTD/svg11.dtd">
<svg version="1.1" id="Capa_1" xmlns="http://www.w3.org/2000/svg" xmlns:xlink="http://www.w3.org/1999/xlink" x="0px" y="0px"
	 width="155px" height="155px" viewBox="0 0 155 155" enable-background="new 0 0 155 155" xml:space="preserve">
<g>
	<path fill="#39A8E0" stroke="#302D7E" stroke-width="0.25" stroke-miterlimit="10" d="M152.501,77.498
		c0,41.422-33.58,75.002-75.003,75.002C36.08,152.5,2.5,118.92,2.5,77.498C2.5,36.074,36.08,2.5,77.498,2.5
		C118.921,2.5,152.501,36.074,152.501,77.498z" class="circulo-mayor"/>
	<path fill="#83D0F5" stroke="#302D7E" stroke-width="0.25" stroke-miterlimit="10" d="M131.917,78.137
		c0,30.228-24.506,54.736-54.733,54.736c-30.228,0-54.735-24.509-54.735-54.736c0-30.233,24.507-54.74,54.735-54.74
		C107.411,23.396,131.917,47.903,131.917,78.137z"/>
	<g>
		
			<line fill="#83D0F5" stroke="#302D7E" stroke-width="0.25" stroke-miterlimit="10" x1="77.305" y1="78.767" x2="41.409" y2="120.033"/>
		
			<line fill="#83D0F5" stroke="#302D7E" stroke-width="0.25" stroke-miterlimit="10" x1="77.498" y1="78.767" x2="113.175" y2="119.371"/>
		
			<line fill="#83D0F5" stroke="#302D7E" stroke-width="0.25" stroke-miterlimit="10" x1="77.498" y1="78.767" x2="77.184" y2="23.396"/>
	</g>
</g>
<g>
	<path fill="none" d="M135.794,78.82H19.209c0-32.198,26.096-58.296,58.288-58.296C109.69,20.524,135.794,46.622,135.794,78.82z"/>
	<text transform="matrix(0.2619 -0.9651 0.9651 0.2619 21.0122 64.3501)"><tspan x="0" y="0" fill="#1E1E1C" font-family="'MyriadPro-Regular'" font-size="8.2257"> </tspan><tspan x="1.706" y="-0.001" fill="#1E1E1C" font-family="'MyriadPro-Regular'" font-size="8.2257" rotate="1.69"> </tspan><tspan x="3.408" y="0.049" fill="#1E1E1C" font-family="'MyriadPro-Regular'" font-size="8.2257" rotate="3.376"> </tspan><tspan x="5.1" y="0.148" fill="#1E1E1C" font-family="'MyriadPro-Regular'" font-size="8.2257" rotate="5.055"> </tspan><tspan x="6.785" y="0.296" fill="#1E1E1C" font-family="'MyriadPro-Regular'" font-size="8.2257" rotate="6.728"> </tspan><tspan x="8.482" y="0.496" fill="#1E1E1C" font-family="'MyriadPro-Regular'" font-size="8.2257" rotate="8.418"> </tspan><tspan x="10.125" y="0.471" fill="#E8501D" font-family="'Algerian'" font-size="16.4516" rotate="14.669">G</tspan><tspan x="20.739" y="3.264" fill="#E8501D" font-family="'Algerian'" font-size="16.4516" rotate="25.029">R</tspan><tspan x="30.018" y="7.598" fill="#E8501D" font-family="'Algerian'" font-size="16.4516" rotate="34.789">U</tspan><tspan x="38.052" y="13.169" fill="#E8501D" font-family="'Algerian'" font-size="16.4516" rotate="44.222">P</tspan><tspan x="44.908" y="19.785" fill="#E8501D" font-family="'Algerian'" font-size="16.4516" rotate="53.866">O</tspan><tspan x="50.724" y="28.053" fill="#1E1E1C" font-family="'Algerian'" font-size="16.4516" rotate="60.832"> </tspan><tspan x="52.818" y="31.409" fill="#E8501D" font-family="'Algerian'" font-size="16.4513" rotate="67.728">E</tspan><tspan x="56.621" y="40.692" fill="#E8501D" font-family="'Algerian'" font-size="16.4513" rotate="77.307">D</tspan><tspan x="58.626" y="50.229" fill="#E8501D" font-family="'Algerian'" font-size="16.4513" rotate="84.447">I</tspan><tspan x="59.244" y="55.063" fill="#E8501D" font-family="'Algerian'" font-size="16.4513" rotate="91.469">T</tspan><tspan x="59.054" y="64.368" fill="#E8501D" font-family="'Algerian'" font-size="16.4513" rotate="101.019">O</tspan><tspan x="57.154" y="74.255" fill="#E8501D" font-family="'Algerian'" font-size="16.4513" rotate="110.981">R</tspan><tspan x="53.328" y="83.775" fill="#E8501D" font-family="'Algerian'" font-size="16.4513" rotate="118.36">I</tspan><tspan x="51.264" y="88.197" fill="#E8501D" font-family="'Algerian'" font-size="16.4513" rotate="126.713">A</tspan><tspan x="43.857" y="97.906" fill="#E8501D" font-family="'Algerian'" font-size="16.4513" rotate="136.994">L</tspan></text>
	<path fill="none" d="M9.488,78.82c0,37.555,30.447,68.004,68.01,68.004c37.558,0,68.005-30.449,68.005-68.004
		c0,0.096-0.203,0.193-0.59,0.282"/>
	<text transform="matrix(0.2642 0.9645 -0.9645 0.2642 11.5537 95.5674)"><tspan x="0" y="0" fill="#1E1E1C" font-family="'MyriadPro-Regular'" font-size="12.3385"> </tspan><tspan x="2.828" y="-0.004" fill="#1E1E1C" font-family="'MyriadPro-Regular'" font-size="12.3385" rotate="-2.401"> </tspan><tspan x="5.639" y="-0.125" fill="#1E1E1C" font-family="'MyriadPro-Regular'" font-size="12.3385" rotate="-4.79"> </tspan><tspan x="8.457" y="-0.366" fill="#1E1E1C" font-family="'MyriadPro-Regular'" font-size="12.3385" rotate="-7.19"> </tspan><tspan x="11.279" y="-0.727" fill="#1E1E1C" font-family="'MyriadPro-Regular'" font-size="12.3385" rotate="-9.599"> </tspan><tspan x="14.048" y="-1.2" fill="#1E1E1C" font-family="'MyriadPro-Regular'" font-size="12.3385" rotate="-11.976"> </tspan><tspan x="16.813" y="-1.79" fill="#1E1E1C" font-family="'MyriadPro-Regular'" font-size="12.3385" rotate="-14.363"> </tspan><tspan x="19.545" y="-2.495" fill="#1E1E1C" font-family="'MyriadPro-Regular'" font-size="12.3385" rotate="-16.741"> </tspan><tspan x="22.265" y="-3.317" fill="#1E1E1C" font-family="'MyriadPro-Regular'" font-size="12.3385" rotate="-19.131"> </tspan><tspan x="24.944" y="-4.252" fill="#1E1E1C" font-family="'MyriadPro-Regular'" font-size="12.3385" rotate="-21.514"> </tspan><tspan x="27.555" y="-5.285" fill="#1E1E1C" font-family="'MyriadPro-Regular'" font-size="12.3385" rotate="-23.87"> </tspan><tspan x="30.144" y="-6.435" fill="#1E1E1C" font-family="'MyriadPro-Regular'" font-size="12.3385" rotate="-26.243"> </tspan><tspan x="32.681" y="-7.691" fill="#1E1E1C" font-family="'MyriadPro-Regular'" font-size="12.3385" rotate="-28.614"> </tspan><tspan x="35.141" y="-9.038" fill="#1E1E1C" font-family="'MyriadPro-Regular'" font-size="12.3385" rotate="-30.961"> </tspan><tspan x="37.566" y="-10.498" fill="#1E1E1C" font-family="'MyriadPro-Regular'" font-size="12.3385" rotate="-33.332"> </tspan><tspan x="39.93" y="-12.058" fill="#1E1E1C" font-family="'MyriadPro-Regular'" font-size="12.3385" rotate="-35.705"> </tspan><tspan x="42.228" y="-13.716" fill="#1E1E1C" font-family="'MyriadPro-Regular'" font-size="12.3385" rotate="-38.083"> </tspan><tspan x="44.46" y="-15.463" fill="#1E1E1C" font-family="'Algerian'" font-size="12.3385" rotate="-40.66"> </tspan><tspan x="46.982" y="-17.638" fill="#1E1E1C" font-family="'Algerian'" font-size="12.3385" rotate="-43.461"> </tspan><tspan x="49.401" y="-19.938" fill="#1E1E1C" font-family="'Algerian'" font-size="12.3385" rotate="-46.277"> </tspan><tspan x="51.973" y="-22.45" fill="#E8501D" font-family="'Algerian'" font-size="16.4513" rotate="-51.863">S</tspan><tspan x="58.094" y="-30.271" fill="#E8501D" font-family="'Algerian'" font-size="16.4513" rotate="-60.787">H</tspan><tspan x="63.607" y="-40.118" fill="#E8501D" font-family="'Algerian'" font-size="16.4513" rotate="-71.165">A</tspan><tspan x="67.693" y="-52.758" fill="#E8501D" font-family="'Algerian'" font-size="16.4513" rotate="-80.772">L</tspan><tspan x="69.256" y="-62.461" fill="#E8501D" font-family="'Algerian'" font-size="16.4513" rotate="-89.599">O</tspan><tspan x="69.331" y="-73.651" fill="#E8501D" font-family="'Algerian'" font-size="16.4513" rotate="-99.817">M</tspan></text>
</g>
<g>
	<path fill="#5A3E1B" d="M82.798,69.294c0,0-1.326-12.469,8.824-20.834c8.199-6.755,18.793-2.987,27.814,2.453
		c0,0,6.395-1.055,6.957,11.611c0.563,12.667-5.033,15.103-5.033,15.103s-23.021-6.271-23.77-6.382
		C96.851,71.135,84.026,74.858,82.798,69.294z"/>
	<path fill="#FAD6C6" d="M106.501,54.703c-5.678,0.157-20.207,0.292-23.086,14.002c0,0-3.48-0.59-3.486,2.06
		c-0.012,2.65,3.806,2.455,3.806,2.455s0.684,13.366,18.297,16.266c17.613,2.896,19.639-8.783,19.639-8.783s4.301,1.162,5.166-2.123
		c0.857-3.284-3.51-3.468-3.51-3.468S126.837,54.148,106.501,54.703z"/>
	<path fill="#F29EBC" d="M93.55,78.563c-0.195,1.327-1.434,2.24-2.752,2.044c-1.33-0.189-2.246-1.42-2.055-2.745
		c0.195-1.333,1.43-2.247,2.758-2.049C92.823,76.004,93.739,77.238,93.55,78.563z"/>
	<path fill="#F29EBC" d="M119.409,81.411c-0.199,1.328-1.43,2.247-2.752,2.048c-1.33-0.188-2.246-1.426-2.049-2.751
		c0.195-1.322,1.426-2.245,2.754-2.048C118.685,78.854,119.606,80.091,119.409,81.411z"/>
	<g>
		<path fill="#FFFFFF" d="M116.507,77.139c-0.928-0.573-1.215-1.792-0.641-2.718c0.584-0.926,1.795-1.213,2.729-0.633
			c0.92,0.577,1.201,1.79,0.629,2.721C118.649,77.436,117.427,77.717,116.507,77.139z"/>
		<path fill="#020303" d="M116.765,76.724c-0.697-0.434-0.91-1.348-0.484-2.045c0.439-0.697,1.355-0.91,2.057-0.476
			c0.689,0.432,0.904,1.347,0.473,2.043C118.378,76.941,117.462,77.161,116.765,76.724z"/>
		<path fill="#FFFFFF" d="M117.265,76.695c-0.195-0.03-0.324-0.214-0.295-0.405c0.031-0.196,0.215-0.326,0.41-0.296
			c0.193,0.032,0.328,0.214,0.295,0.408C117.64,76.599,117.462,76.728,117.265,76.695z"/>
	</g>
	<path fill="#FFFFFF" d="M117.942,75.521c0,0.089-0.07,0.157-0.162,0.157c-0.082,0-0.158-0.068-0.158-0.157
		c0-0.086,0.076-0.157,0.158-0.157C117.872,75.364,117.942,75.435,117.942,75.521z"/>
	<path fill="#FFFFFF" d="M93.78,74.034c-1.039-0.339-1.607-1.448-1.27-2.489c0.336-1.038,1.455-1.604,2.492-1.267
		c1.037,0.34,1.6,1.454,1.27,2.493C95.935,73.809,94.817,74.376,93.78,74.034z"/>
	<path fill="#020303" d="M93.933,73.565c-0.781-0.251-1.207-1.087-0.955-1.869c0.252-0.777,1.092-1.206,1.875-0.953
		c0.779,0.258,1.201,1.095,0.955,1.873C95.554,73.398,94.712,73.826,93.933,73.565z"/>
	<path fill="#FFFFFF" d="M94.407,73.428c-0.191,0.011-0.363-0.136-0.383-0.333c-0.016-0.196,0.137-0.364,0.334-0.38
		c0.189-0.016,0.363,0.128,0.375,0.326C94.751,73.235,94.604,73.404,94.407,73.428z"/>
	<path fill="#FFFFFF" d="M94.362,72.557c-0.088,0.007-0.168-0.063-0.174-0.146c-0.006-0.089,0.063-0.169,0.146-0.172
		c0.09-0.006,0.164,0.06,0.17,0.144C94.513,72.471,94.448,72.546,94.362,72.557z"/>
	<path fill="#8A664C" d="M116.261,50.193c0,0-17.295-10.582-31.139,10.018C85.122,60.211,96.128,36.259,116.261,50.193z"/>
	<path fill="#8A664C" d="M121.521,53.593c0,0,3.633,6.902,2.926,16.504C124.446,70.097,128.493,59.424,121.521,53.593z"/>
	<path fill="#DCB69F" d="M104.878,78.054c0,0,0.236,0.791-0.32,1.105c-0.555,0.32,0.799,0.562,0.957-0.229
		C105.669,78.137,105.435,77.896,104.878,78.054z"/>
	<path fill="#D74955" d="M106.501,84.89c0.943-0.789,1.303-1.846,1.303-1.846l-6.883-0.876c0,0-0.367,1.033,0.078,2
		c0.639-0.412,1.447-0.652,2.336-0.652C104.665,83.516,105.833,84.064,106.501,84.89z"/>
	<path fill="#CF172E" d="M103.296,85.654c1.459,0.276,2.5-0.174,3.205-0.765c-0.668-0.825-1.836-1.374-3.166-1.374
		c-0.889,0-1.697,0.24-2.336,0.652C101.29,84.802,101.937,85.402,103.296,85.654z"/>
	<path fill="#5A3E1B" d="M83.415,68.706c0,0,8.479-4.577,10.184-10.296c0,0,1.949,8.64,6.695,10.468c0,0-1.461-2.801-0.971-4.261
		c0,0,5.113,6.087,11.447,6.941c0,0-3.291-3.041-3.17-5.604c0,0,4.021,5.968,11.201,6.575c0,0-1.582-2.189-1.705-2.918
		c0,0,5.396,3.088,6.23,5.502c0,0,3.756-10.743-1.357-15.855c-5.115-5.109-18.877-8.4-23.256-7.67
		C94.329,52.316,81.63,61.343,83.415,68.706z"/>
	<path fill="#8A664C" d="M111.499,51.345c0,0-3.09,10.713,4.787,17.698c0,0-7.225-3.733-7.063-10.633
		C109.388,51.508,111.499,51.345,111.499,51.345z"/>
	<path fill="#8A664C" d="M103.46,48.422c0,0-6.818,6.984,0.486,15.988c0,0-6.736-4.3-5.193-11.28
		C100.294,46.146,103.46,48.422,103.46,48.422z"/>
</g>
<g>
	<path fill="#A35F22" d="M65.263,53.716c1.78-0.547,3.41-2.111,4.116-3.847c1.25-3.055-1.892-1.353-2.73,0.212
		c1.096-1.133,1.332-4.43,0.978-5.906c-1.262,0.18-2.133,2.803-2.593,3.908c0.185-0.37,0.393-1.91,0.015-2.251
		c-0.701-0.652-1.375,0.733-1.738,1.325c-0.906,1.454-1.875,3.521-1.613,5.315"/>
	<path fill="#A35F22" d="M35.058,59.2c-0.197-2.056-1.212-3.89-3.05-4.895c-0.615,0.633,0.135,2.159,0.676,2.772
		c-0.943-0.686-2.308-1.649-3.533-1.309c-0.139,1.224,1.005,2.645,1.993,3.172c-1.705-0.665-4.137,0.024-2.077,1.802
		c1.364,1.191,3.47,1.406,5.071,0.844"/>
	<polygon fill="#EB6191" points="63.399,51.514 71.187,53.249 65.898,58.533 62.918,52.312 55.75,51.463 60.44,45.017 	"/>
	<path fill="#A35F22" d="M72.218,69.048c0,0,0.114-10.993-9.454-17.443c-7.726-5.204-16.652-1.034-24.073,4.474
		c0,0-5.672-0.388-5.096,10.717c0.571,11.109,5.658,12.764,5.658,12.764s19.57-7.408,20.211-7.565
		C60.104,71.839,71.612,74.011,72.218,69.048z"/>
	<path fill="#FAD6C6" d="M71.631,68.585c0,0,2.985-0.804,3.217,1.512c0.237,2.313-3.116,2.459-3.116,2.459
		s0.521,11.73-14.608,15.731c-15.131,4.009-17.883-6.019-17.883-6.019s-3.655,1.375-4.682-1.415
		c-1.028-2.795,2.767-3.329,2.767-3.329s4.486-6.524,4.728-12.138C42.053,65.388,65.807,73.545,71.631,68.585z"/>
	<path fill="#F29EBC" d="M63.615,78.042c0.278,1.14,1.43,1.84,2.568,1.555c1.146-0.275,1.841-1.433,1.561-2.566
		c-0.281-1.151-1.43-1.848-2.578-1.56C64.027,75.753,63.333,76.902,63.615,78.042z"/>
	<path fill="#F29EBC" d="M41.272,82.701c0.287,1.142,1.438,1.839,2.578,1.557c1.14-0.275,1.836-1.433,1.561-2.572
		c-0.287-1.145-1.436-1.842-2.577-1.561C41.694,80.412,40.994,81.562,41.272,82.701z"/>
	<g>
		<path fill="#FFFFFF" d="M43.452,78.727c0.761-0.578,0.91-1.666,0.325-2.43c-0.578-0.758-1.667-0.906-2.425-0.327
			c-0.763,0.583-0.904,1.674-0.327,2.43C41.604,79.159,42.693,79.311,43.452,78.727z"/>
		<path fill="#020303" d="M43.193,78.384c0.574-0.436,0.68-1.253,0.247-1.824c-0.437-0.574-1.257-0.686-1.83-0.247
			c-0.572,0.437-0.68,1.25-0.246,1.828C41.802,78.71,42.619,78.824,43.193,78.384z"/>
		<path fill="#FFFFFF" d="M42.75,78.399c0.167-0.038,0.27-0.213,0.223-0.375c-0.044-0.168-0.214-0.269-0.375-0.226
			c-0.172,0.046-0.276,0.214-0.225,0.383C42.412,78.35,42.587,78.452,42.75,78.399z"/>
	</g>
	<path fill="#FFFFFF" d="M42.063,77.436c0.007,0.079,0.075,0.128,0.154,0.123c0.071-0.004,0.128-0.071,0.121-0.15
		c-0.004-0.075-0.073-0.129-0.15-0.125C42.115,77.29,42.053,77.356,42.063,77.436z"/>
	<path fill="#FFFFFF" d="M63.03,74.107c0.876-0.378,1.278-1.401,0.904-2.276c-0.389-0.882-1.41-1.28-2.292-0.903
		c-0.87,0.388-1.269,1.41-0.893,2.286C61.125,74.087,62.154,74.495,63.03,74.107z"/>
	<path fill="#020303" d="M62.86,73.714c0.659-0.286,0.958-1.05,0.674-1.712c-0.288-0.657-1.056-0.961-1.72-0.674
		c-0.655,0.286-0.952,1.054-0.673,1.712C61.428,73.701,62.198,74.004,62.86,73.714z"/>
	<path fill="#FFFFFF" d="M62.429,73.629c0.168,0,0.307-0.145,0.307-0.321c-0.002-0.171-0.146-0.306-0.32-0.304
		c-0.173,0-0.306,0.147-0.306,0.317C62.113,73.495,62.253,73.629,62.429,73.629z"/>
	<path fill="#FFFFFF" d="M62.395,72.866c0.079,0,0.14-0.063,0.14-0.141c-0.005-0.079-0.066-0.139-0.14-0.139
		c-0.078,0.004-0.142,0.067-0.135,0.144C62.26,72.803,62.322,72.866,62.395,72.866z"/>
	<path fill="#7C4013" d="M71.018,67.559c0,0-22.969,0.253-29.838-5.997c0,0-1.806,12.094-4.521,14.8l2.786-17.444
		C39.443,58.919,56.061,64.979,71.018,67.559z"/>
	<path fill="#7C4013" d="M40.668,57.489c0,0,12.222-1.529,28.717,7.858C69.385,65.347,41.617,59.508,40.668,57.489z"/>
	<path fill="#7C4013" d="M41.409,55.179c0,0,14.204-10.684,28.02,6.137C69.429,61.316,57.813,41.336,41.409,55.179z"/>
	<path fill="#7C4013" d="M37.102,58.594c0,0-2.595,6.33-1.174,14.648C35.928,73.243,31.499,64.267,37.102,58.594z"/>
	<polygon fill="#EB6191" points="33.625,60.418 34.851,52.537 40.463,57.47 34.452,60.845 34.07,68.052 27.338,63.792 	"/>
	<path fill="#DCB69F" d="M53.682,78.552c0,0-0.141,0.708,0.369,0.938c0.513,0.23-0.649,0.55-0.852-0.129
		C52.996,78.688,53.18,78.458,53.682,78.552z"/>
	<path fill="#D74955" d="M52.838,84.657c-0.891-0.613-1.297-1.505-1.297-1.505l5.935-1.344c0,0,0.41,0.87,0.103,1.746
		c-0.597-0.298-1.321-0.438-2.089-0.362C54.321,83.303,53.349,83.875,52.838,84.657z"/>
	<path fill="#CF172E" d="M55.703,85.053c-1.259,0.359-2.195,0.059-2.865-0.396c0.511-0.782,1.483-1.354,2.651-1.465
		c0.769-0.076,1.492,0.064,2.089,0.362C57.375,84.139,56.857,84.716,55.703,85.053z"/>
</g>
<g>
	<g>
		<path fill="#FFFFFF" d="M74.488,95.233c0.2-0.076,0.478-0.153,0.83-0.208c0.436-0.074,0.764-0.029,0.999,0.123
			c0.213,0.129,0.365,0.355,0.416,0.656c0.057,0.311,0,0.568-0.141,0.77c-0.19,0.287-0.542,0.479-0.97,0.549
			c-0.135,0.023-0.259,0.041-0.36,0.029l0.231,1.365l-0.445,0.074L74.488,95.233z M75.2,96.8c0.103,0.005,0.226-0.005,0.37-0.026
			c0.529-0.09,0.809-0.4,0.731-0.873c-0.079-0.448-0.431-0.609-0.916-0.527c-0.189,0.027-0.337,0.065-0.408,0.103L75.2,96.8z"/>
		<path fill="#FFFFFF" d="M79.407,96.648l-1.338-0.023l-0.021,1.242l1.494,0.025l-0.005,0.379l-1.942-0.039l0.067-3.443l1.858,0.035
			l-0.006,0.369l-1.415-0.027l-0.023,1.09l1.342,0.025L79.407,96.648z"/>
		<path fill="#FFFFFF" d="M80.725,97.374l-0.583,0.974l-0.45-0.1l1.893-3.105l0.523,0.111l0.398,3.624l-0.461-0.103l-0.125-1.14
			L80.725,97.374z M81.903,97.277l-0.111-1.039c-0.027-0.24-0.033-0.45-0.041-0.656h-0.008c-0.09,0.185-0.191,0.381-0.303,0.565
			l-0.553,0.905L81.903,97.277z"/>
		<path fill="#FFFFFF" d="M84.972,99.904c-0.188,0.006-0.52-0.057-0.895-0.232c-0.887-0.406-1.291-1.271-0.82-2.298
			c0.455-0.978,1.426-1.339,2.396-0.89c0.389,0.182,0.598,0.377,0.68,0.483l-0.252,0.286c-0.117-0.145-0.311-0.303-0.564-0.426
			c-0.738-0.336-1.445-0.098-1.82,0.731c-0.357,0.762-0.141,1.459,0.617,1.811c0.248,0.112,0.523,0.181,0.719,0.176L84.972,99.904z"
			/>
		<path fill="#FFFFFF" d="M87.64,99.99l-1.086-0.787l-0.73,1.004l1.207,0.877l-0.219,0.303l-1.572-1.141l2.031-2.789l1.506,1.096
			l-0.217,0.303l-1.148-0.832l-0.639,0.881l1.082,0.785L87.64,99.99z"/>
		<path fill="#FFFFFF" d="M89.562,103.671c-0.004,0.231,0.057,0.533,0.209,0.797c0.234,0.396,0.574,0.506,0.877,0.327
			c0.275-0.164,0.344-0.415,0.256-0.91c-0.111-0.586-0.031-1.032,0.383-1.279c0.467-0.271,1.033-0.092,1.375,0.486
			c0.182,0.303,0.236,0.57,0.244,0.742l-0.379,0.08c-0.004-0.129-0.033-0.377-0.188-0.647c-0.244-0.403-0.576-0.414-0.775-0.297
			c-0.281,0.163-0.311,0.421-0.227,0.927c0.1,0.617,0.004,1.017-0.434,1.274c-0.453,0.269-1.055,0.161-1.463-0.54
			c-0.17-0.285-0.271-0.65-0.26-0.869L89.562,103.671z"/>
		<path fill="#FFFFFF" d="M93.712,105.367l-1.371,0.454l0.529,1.585l1.367-0.455l0.148,0.426l-3.275,1.09l-0.139-0.428l1.531-0.51
			l-0.523-1.584l-1.535,0.512l-0.141-0.422l3.268-1.09L93.712,105.367z"/>
		<path fill="#FFFFFF" d="M92.347,109.498l-1.111-0.258l-0.039-0.46l3.537,0.858l0.053,0.534l-3.33,1.481l-0.045-0.47l1.047-0.466
			L92.347,109.498z M92.798,110.594l0.959-0.426c0.213-0.096,0.416-0.163,0.605-0.23v-0.012c-0.207-0.034-0.42-0.072-0.635-0.118
			l-1.025-0.246L92.798,110.594z"/>
		<path fill="#FFFFFF" d="M94.817,112.363l-0.043,0.441l-3.059-0.324l-0.152,1.465l-0.379-0.039l0.203-1.909L94.817,112.363z"/>
		<path fill="#FFFFFF" d="M91.987,117.383c-1.127-0.354-1.516-1.229-1.252-2.072c0.271-0.869,1.137-1.269,2.129-0.955
			c1.049,0.324,1.527,1.191,1.252,2.065C93.835,117.32,92.966,117.684,91.987,117.383z M92.735,114.812
			c-0.701-0.222-1.453-0.034-1.662,0.634c-0.213,0.674,0.291,1.245,1.039,1.481c0.652,0.2,1.443,0.073,1.668-0.632
			C93.999,115.592,93.452,115.035,92.735,114.812z"/>
		<path fill="#FFFFFF" d="M89.849,120.455c0.416,0.237,0.92,0.527,1.281,0.762l0.006-0.012c-0.275-0.318-0.557-0.674-0.859-1.078
			l-1.072-1.421l0.186-0.284l1.678,0.431c0.502,0.125,0.949,0.253,1.342,0.392l0.006-0.004c-0.354-0.246-0.824-0.584-1.24-0.886
			l-1.191-0.888l0.232-0.355l2.762,2.084l-0.311,0.472l-1.719-0.413c-0.438-0.11-0.818-0.223-1.166-0.34l-0.006,0.012
			c0.242,0.264,0.494,0.574,0.775,0.938l1.061,1.421l-0.311,0.477l-3.002-1.694l0.236-0.367L89.849,120.455z"/>
		<path fill="#FFFFFF" d="M87.271,125.327c-0.166,0.141-0.393,0.308-0.705,0.481c-0.383,0.221-0.713,0.293-0.984,0.23
			c-0.242-0.045-0.463-0.208-0.615-0.47c-0.158-0.276-0.197-0.535-0.137-0.776c0.08-0.332,0.35-0.635,0.725-0.854
			c0.119-0.061,0.225-0.117,0.326-0.146l-0.686-1.201l0.387-0.218L87.271,125.327z M86.065,124.109
			c-0.102,0.022-0.213,0.078-0.342,0.148c-0.465,0.266-0.621,0.659-0.385,1.069c0.227,0.397,0.615,0.427,1.041,0.185
			c0.168-0.102,0.291-0.185,0.35-0.242L86.065,124.109z"/>
		<path fill="#FFFFFF" d="M84.146,126.943l-1.275-3.204l0.41-0.165l1.275,3.201L84.146,126.943z"/>
		<path fill="#FFFFFF" d="M81.968,125.181l0.111-1.137l0.447-0.098l-0.387,3.62l-0.521,0.119l-1.909-3.105l0.465-0.105l0.601,0.976
			L81.968,125.181z M80.937,125.77l0.551,0.893c0.127,0.201,0.221,0.394,0.316,0.578l0.006-0.006
			c0.006-0.208,0.018-0.426,0.033-0.645l0.111-1.05L80.937,125.77z"/>
		<path fill="#FFFFFF" d="M77.555,124.598l0.454,0.75c0.178,0.293,0.296,0.478,0.408,0.675h0.013c0.09-0.2,0.184-0.388,0.357-0.69
			l0.405-0.764l0.514-0.006l-1.031,1.758l1.039,1.686l-0.515,0.01l-0.466-0.805c-0.136-0.217-0.228-0.393-0.325-0.578h-0.02
			c-0.095,0.209-0.178,0.37-0.3,0.593l-0.456,0.813l-0.511,0.01l1.017-1.693l-1.101-1.754L77.555,124.598z"/>
		<path fill="#FFFFFF" d="M72.321,126.943c-0.214-0.057-0.482-0.148-0.81-0.293c-0.403-0.18-0.649-0.402-0.762-0.656
			c-0.107-0.225-0.107-0.497,0.016-0.779c0.131-0.289,0.315-0.474,0.545-0.562c0.321-0.136,0.72-0.096,1.116,0.085
			c0.125,0.055,0.231,0.111,0.316,0.173l0.564-1.259l0.407,0.181L72.321,126.943z M72.59,125.242
			c-0.073-0.062-0.18-0.123-0.32-0.181c-0.489-0.224-0.894-0.116-1.089,0.315c-0.185,0.416,0.02,0.746,0.465,0.949
			c0.179,0.076,0.32,0.129,0.399,0.14L72.59,125.242z"/>
		<path fill="#FFFFFF" d="M70.692,123.54l0.904-0.696l0.381,0.266l-2.913,2.184l-0.444-0.303l0.972-3.51l0.393,0.27l-0.304,1.102
			L70.692,123.54z M69.558,123.192l-0.279,1.007c-0.063,0.229-0.137,0.425-0.208,0.622l0.011,0.007
			c0.157-0.141,0.319-0.281,0.494-0.416l0.842-0.635L69.558,123.192z"/>
		<path fill="#FFFFFF" d="M69.333,121.568l-3.343,0.541l-0.013,0.012l1.205,1.269l-0.273,0.259l-1.6-1.69l0.196-0.185l3.335-0.539
			l0.011-0.012l-1.333-1.398l0.278-0.258l1.728,1.83L69.333,121.568z"/>
		<path fill="#FFFFFF" d="M63.373,118.865c-0.126-0.181-0.26-0.428-0.407-0.76c-0.173-0.401-0.208-0.74-0.117-0.998
			c0.073-0.242,0.264-0.443,0.544-0.561c0.287-0.126,0.55-0.141,0.78-0.053c0.32,0.119,0.59,0.422,0.765,0.82
			c0.049,0.123,0.096,0.234,0.11,0.337l1.269-0.544l0.181,0.41L63.373,118.865z M64.721,117.798
			c-0.02-0.101-0.058-0.214-0.114-0.354c-0.214-0.488-0.583-0.689-1.021-0.5c-0.416,0.181-0.489,0.562-0.293,1.02
			c0.072,0.172,0.147,0.307,0.197,0.367L64.721,117.798z"/>
		<path fill="#FFFFFF" d="M62.119,115.574l3.323-0.903l0.12,0.426L62.238,116L62.119,115.574z"/>
		<path fill="#FFFFFF" d="M64.111,113.61l1.119,0.233l0.051,0.462l-3.56-0.785l-0.056-0.54l3.301-1.543l0.051,0.469l-1.038,0.484
			L64.111,113.61z M63.64,112.521l-0.949,0.449c-0.212,0.099-0.408,0.173-0.604,0.245v0.007c0.208,0.034,0.426,0.062,0.639,0.108
			l1.028,0.223L63.64,112.521z"/>
		<path fill="#FFFFFF" d="M65.122,108.77c0.067,0.168,0.12,0.506,0.073,0.92c-0.096,0.973-0.779,1.634-1.903,1.522
			c-1.071-0.106-1.73-0.905-1.622-1.972c0.039-0.426,0.162-0.686,0.23-0.796l0.353,0.14c-0.096,0.164-0.186,0.393-0.213,0.68
			c-0.079,0.803,0.382,1.393,1.287,1.481c0.836,0.085,1.426-0.347,1.511-1.184c0.027-0.271-0.005-0.552-0.074-0.736L65.122,108.77z"
			/>
		<path fill="#FFFFFF" d="M64.331,106.221l-0.388,1.279l1.192,0.366l0.432-1.433l0.358,0.111l-0.566,1.854l-3.296-1.006l0.545-1.778
			l0.355,0.106l-0.413,1.352l1.042,0.32l0.393-1.279L64.331,106.221z"/>
		<path fill="#FFFFFF" d="M67.644,101.145c-0.387-0.286-0.853-0.629-1.186-0.91l-0.005,0.012c0.234,0.349,0.476,0.737,0.736,1.169
			l0.911,1.532l-0.221,0.264l-1.623-0.612c-0.476-0.185-0.91-0.36-1.291-0.544l-0.005,0.011c0.325,0.28,0.756,0.669,1.139,1.017
			l1.082,1.01l-0.267,0.332l-2.515-2.38l0.358-0.437l1.667,0.604c0.416,0.158,0.786,0.309,1.117,0.467l0.005-0.012
			c-0.214-0.285-0.426-0.622-0.661-1.016l-0.897-1.533l0.357-0.438l2.801,2.021l-0.273,0.336L67.644,101.145z"/>
		<path fill="#FFFFFF" d="M67.762,98.488l2.207,2.656l-0.343,0.279l-2.208-2.648L67.762,98.488z"/>
		<path fill="#FFFFFF" d="M68.688,97.816c0.17-0.158,0.428-0.348,0.692-0.508c0.403-0.252,0.707-0.335,0.994-0.283
			c0.228,0.038,0.438,0.191,0.576,0.414c0.238,0.387,0.155,0.793-0.093,1.089l0.011,0.011c0.276-0.061,0.538,0.067,0.791,0.326
			c0.349,0.355,0.596,0.594,0.724,0.668l-0.387,0.244c-0.102-0.053-0.319-0.266-0.629-0.58c-0.337-0.354-0.589-0.41-0.942-0.208
			l-0.356,0.218l0.782,1.27l-0.375,0.235L68.688,97.816z M69.889,98.922l0.387-0.24c0.406-0.249,0.528-0.63,0.32-0.967
			c-0.233-0.377-0.61-0.377-1.015-0.129c-0.181,0.111-0.302,0.207-0.348,0.264L69.889,98.922z"/>
	</g>
	<g>
		<path fill="#FFFFFF" d="M73.926,108.814c0-1.438,0.496-2.605,1.096-2.605s1.094,1.168,1.094,2.605c0,1.431-0.494,2.6-1.094,2.6
			S73.926,110.245,73.926,108.814z"/>
		<path fill="#FFFFFF" d="M79.804,108.814c0-1.438,0.489-2.605,1.096-2.605c0.6,0,1.09,1.168,1.09,2.605c0,1.431-0.49,2.6-1.09,2.6
			C80.292,111.414,79.804,110.245,79.804,108.814z"/>
		<path fill="#FFFFFF" d="M71.311,114.628c-0.198-0.491-0.258,1.046-0.461,0.257c-0.203-0.793,0.606-1.725,0.662-1.41
			c0.06,0.31-0.201,0.578-0.201,0.578c1.011,2.666,3.591,4.57,6.614,4.57c3.025,0,5.602-1.904,6.615-4.57
			c0,0-0.26-0.269-0.205-0.578c0.059-0.314,0.865,0.617,0.662,1.41c-0.201,0.789-0.264-0.748-0.457-0.257
			c-1.014,2.663-3.59,4.567-6.615,4.567C74.901,119.195,72.321,117.291,71.311,114.628z"/>
		<path fill="#FFFFFF" d="M83.679,104.412c0,0-1.021-1.113-2.818-1.162c-0.342-0.016-0.466-0.59,0.113-0.74
			c0.578-0.151,1.977,0.299,2.9,1.65C83.978,104.34,83.858,104.523,83.679,104.412z"/>
		<path fill="#FFFFFF" d="M71.792,104.412c0,0,1.022-1.113,2.818-1.162c0.344-0.016,0.474-0.59-0.111-0.74
			c-0.578-0.151-1.978,0.299-2.903,1.65C71.497,104.34,71.612,104.523,71.792,104.412z"/>
	</g>
</g>
</svg>
